<?xml version="1.0" encoding="utf-8"?>
<!-- Generator: Adobe Illustrator 22.0.1, SVG Export Plug-In . SVG Version: 6.00 Build 0)  -->
<svg version="1.1" id="emoji" xmlns="http://www.w3.org/2000/svg" xmlns:xlink="http://www.w3.org/1999/xlink" x="0px" y="0px"
	 viewBox="0 0 72 72" style="enable-background:new 0 0 72 72;" xml:space="preserve">
<style type="text/css">
	.st0{fill:#FCEA2B;}
	.st1{fill:none;stroke:#FCEA2B;stroke-width:1.8;stroke-miterlimit:10;}
</style>
<g id="color">
	<path class="st0" d="M34.1,61c12.7,0,23-10.2,23-22.7c0-5.7-2.1-10.9-5.6-14.8c-0.1-0.1-0.2-0.2-0.3-0.3c-1.2-1.4-2.7-2.6-4.2-3.6
		c-3.7-2.5-8.1-3.9-12.9-3.9c-12.7,0-23,10.2-23,22.7C11.1,50.8,21.4,61,34.1,61z"/>
	<path class="st1" d="M34.1,61c12.7,0,23-10.2,23-22.7c0-5.7-2.1-10.9-5.6-14.8c-0.1-0.1-0.2-0.2-0.3-0.3c-1.2-1.4-2.7-2.6-4.2-3.6
		c-3.7-2.5-8.1-3.9-12.9-3.9c-12.7,0-23,10.2-23,22.7C11.1,50.8,21.4,61,34.1,61z"/>
</g>
<g id="hair">
</g>
<g id="skin">
</g>
<g id="skin-shadow">
</g>
</svg>
