<?xml version="1.0" encoding="utf-8"?>
<!-- Generator: Adobe Illustrator 22.0.1, SVG Export Plug-In . SVG Version: 6.00 Build 0)  -->
<svg version="1.1" id="emoji" xmlns="http://www.w3.org/2000/svg" xmlns:xlink="http://www.w3.org/1999/xlink" x="0px" y="0px"
	 viewBox="0 0 72 72" style="enable-background:new 0 0 72 72;" xml:space="preserve">
<style type="text/css">
	.st0{fill:#FFFFFF;}
	.st1{fill:none;stroke:#000000;stroke-width:2;stroke-linecap:round;stroke-linejoin:round;}
	.st2{fill:none;stroke:#000000;stroke-width:2;stroke-miterlimit:10;}
</style>
<g id="color">
	<path class="st0" d="M46.5,49.1H25.2c-2.2,0-4-1.8-4-4l0,0c0-2.2,1.8-4,4-4h21.3c2.2,0,4,1.8,4,4l0,0
		C50.5,47.3,48.7,49.1,46.5,49.1z"/>
</g>
<g id="line">
	<line class="st1" x1="26.2" y1="41.4" x2="26.2" y2="49.1"/>
	<line class="st1" x1="32.2" y1="41.4" x2="32.2" y2="49.1"/>
	<line class="st1" x1="38.2" y1="41.4" x2="38.2" y2="49.1"/>
	<line class="st1" x1="44.2" y1="41.4" x2="44.2" y2="49.1"/>
	<path class="st2" d="M46.5,49.1H25.2c-2.2,0-4-1.8-4-4l0,0c0-2.2,1.8-4,4-4h21.3c2.2,0,4,1.8,4,4l0,0
		C50.5,47.3,48.7,49.1,46.5,49.1z"/>
</g>
</svg>
