<?xml version="1.0" encoding="utf-8"?>
<!-- Generator: Adobe Illustrator 22.0.1, SVG Export Plug-In . SVG Version: 6.00 Build 0)  -->
<svg version="1.1" id="emoji" xmlns="http://www.w3.org/2000/svg" xmlns:xlink="http://www.w3.org/1999/xlink" x="0px" y="0px"
	 viewBox="0 0 72 72" style="enable-background:new 0 0 72 72;" xml:space="preserve">
<style type="text/css">
	.st0{fill:#FFFFFF;}
	.st1{fill:#EA5A47;}
	.st2{fill:none;stroke:#000000;stroke-width:2;stroke-linecap:round;stroke-linejoin:round;stroke-miterlimit:10;}
</style>
<g id="color">
	<path class="st0" d="M50.5,41.9c0,1.6-0.3,3.1-0.9,4.5c-12.5,3-25.4,0.3-27.5-0.1c-0.5-1.3-0.8-2.8-0.8-4.4h0.1
		c0,0,14.8,3.6,28.9,0.1L50.5,41.9z"/>
	<path class="st1" d="M49.6,46.4c-1.8,4.3-6.3,7.2-13.7,7.2c-7.4,0-12-3-13.8-7.4C24.2,46.7,37.1,49.4,49.6,46.4z"/>
</g>
<g id="line">
	<path class="st2" d="M50.5,41.9c0,1.6-0.3,3.1-0.9,4.5c-12.5,3-25.4,0.3-27.5-0.1c-0.5-1.3-0.8-2.8-0.8-4.4h0.1
		c0,0,14.8,3.6,28.9,0.1L50.5,41.9z"/>
	<path class="st2" d="M49.6,46.4c-1.8,4.3-6.3,7.2-13.7,7.2c-7.4,0-12-3-13.8-7.4C24.2,46.7,37.1,49.4,49.6,46.4z"/>
</g>
</svg>
