<?xml version="1.0" encoding="utf-8"?>
<!-- Generator: Adobe Illustrator 22.0.1, SVG Export Plug-In . SVG Version: 6.00 Build 0)  -->
<svg version="1.1" id="emoji" xmlns="http://www.w3.org/2000/svg" xmlns:xlink="http://www.w3.org/1999/xlink" x="0px" y="0px"
	 viewBox="0 0 72 72" style="enable-background:new 0 0 72 72;" xml:space="preserve">
<style type="text/css">
	.st0{fill:#EA5A47;}
	.st1{fill:none;stroke:#000000;stroke-width:2;stroke-miterlimit:10;}
	.st2{fill:none;stroke:#000000;stroke-width:2;stroke-linecap:round;stroke-linejoin:round;stroke-miterlimit:10;}
</style>
<g id="color">
	<polygon class="st0" points="46,50.5 47.7,52.8 50.6,55.7 52.9,57 55.2,56.5 57.4,54.9 58,52.5 57.2,50.5 55.8,48.7 54.4,47.5 
		53.3,46.2 51.3,44.7 50.2,46 48.6,48.1 	"/>
</g>
<g id="line">
	<path class="st1" d="M51.6,44.9c0,0,6.6,4.6,6.4,7.6l0,0c-0.1,4.6-4.3,4.5-4.3,4.5c-2.9,0.3-7.7-6.2-7.7-6.2"/>
	<path class="st2" d="M21.2,41.7c2.2,6.6,8.5,11.4,15.8,11.4c7.4,0,13.6-4.8,15.8-11.4"/>
</g>
</svg>
