<?xml version="1.0" encoding="utf-8"?>
<!-- Generator: Adobe Illustrator 22.0.1, SVG Export Plug-In . SVG Version: 6.00 Build 0)  -->
<svg version="1.1" id="emoji" xmlns="http://www.w3.org/2000/svg" xmlns:xlink="http://www.w3.org/1999/xlink" x="0px" y="0px"
	 viewBox="0 0 72 72" style="enable-background:new 0 0 72 72;" xml:space="preserve">
<style type="text/css">
	.st0{fill:#FFFFFF;}
	.st1{fill:#EA5A47;}
	.st2{fill:none;stroke:#000000;stroke-width:2;stroke-linecap:round;stroke-linejoin:round;stroke-miterlimit:10;}
	.st3{fill:none;stroke:#000000;stroke-width:2;stroke-linejoin:round;stroke-miterlimit:10;}
</style>
<g id="color">
	<path class="st0" d="M50.2,42c0,1.6-0.3,3.1-0.9,4.5c-12.5,3-25.4,0.3-27.5-0.1C21.3,45,21,43.6,21,42h0.1c0,0,14.8,3.6,28.9,0.1
		L50.2,42z"/>
	<path class="st1" d="M49.3,46.5c-1.8,4.3-6.3,7.2-13.7,7.2c-7.4,0-12-3-13.8-7.4C23.9,46.8,36.8,49.5,49.3,46.5z"/>
</g>
<g id="line">
	<path class="st2" d="M20.9,42.3c0,0,14.8,3.6,28.9,0.1"/>
	<path class="st2" d="M49.9,42.3c0,6.5-4.8,11.7-14.6,11.7c-9.7,0-14.6-5.2-14.6-11.7"/>
	<path class="st3" d="M21.3,46.6c0,0,14.5,3.6,28.3,0.1"/>
</g>
</svg>
