<?xml version="1.0" encoding="utf-8"?>
<!-- Generator: Adobe Illustrator 22.0.1, SVG Export Plug-In . SVG Version: 6.00 Build 0)  -->
<svg version="1.1" id="emoji" xmlns="http://www.w3.org/2000/svg" xmlns:xlink="http://www.w3.org/1999/xlink" x="0px" y="0px"
	 viewBox="0 0 72 72" style="enable-background:new 0 0 72 72;" xml:space="preserve">
<style type="text/css">
	.st0{fill:#FFFFFF;}
	.st1{fill:#EA5A47;}
	.st2{fill:none;stroke:#000000;stroke-width:2;stroke-linecap:round;stroke-linejoin:round;stroke-miterlimit:10;}
	.st3{fill:none;stroke:#000000;stroke-width:2;stroke-miterlimit:10;}
</style>
<g id="color">
	<path class="st0" d="M41.7,46.6c2-1.1,3.6-2.8,4.5-4.8c-2,1-6.2,1.6-10.6,1.5c-4.1,0-7.7-0.6-9.5-1.5h-0.2c0.9,2.2,2.7,3.9,4.9,5"
		/>
	<path class="st1" d="M41.7,42.8c0,6.1-2.5,11-5.7,11c-3.1,0-5.7-4.9-5.7-11"/>
</g>
<g id="line">
	<path class="st2" d="M30.8,46.8c-2.2-1.1-4-2.8-4.9-5 M46.2,41.8c-0.9,2-2.5,3.7-4.5,4.8 M26.2,41.8c1.8,0.9,5.5,1.5,9.5,1.5
		c4.4,0.1,8.6-0.6,10.6-1.5"/>
	<path class="st3" d="M41.7,42.8c0,6.1-2.5,11-5.7,11s-5.7-4.9-5.7-11"/>
</g>
</svg>
