<?xml version="1.0" encoding="utf-8"?>
<!-- Generator: Adobe Illustrator 22.0.1, SVG Export Plug-In . SVG Version: 6.00 Build 0)  -->
<svg version="1.1" id="emoji" xmlns="http://www.w3.org/2000/svg" xmlns:xlink="http://www.w3.org/1999/xlink" x="0px" y="0px"
	 viewBox="0 0 72 72" style="enable-background:new 0 0 72 72;" xml:space="preserve">
<style type="text/css">
	.st0{fill:#FFFFFF;}
	.st1{fill:none;stroke:#000000;stroke-width:2;stroke-linecap:round;stroke-linejoin:round;}
	.st2{fill:none;stroke:#000000;stroke-width:2;stroke-miterlimit:10;}
</style>
<g id="color">
	<path class="st0" d="M25.3,40.4h21.3c2.2,0,4,1.8,4,4v0c0,2.2-1.8,4-4,4H25.3c-2.2,0-4-1.8-4-4v0C21.3,42.2,23.1,40.4,25.3,40.4z"
		/>
</g>
<g id="line">
	<line class="st1" x1="26.3" y1="40.7" x2="26.3" y2="48.5"/>
	<line class="st1" x1="32.3" y1="40.7" x2="32.3" y2="48.5"/>
	<line class="st1" x1="38.3" y1="40.7" x2="38.3" y2="48.5"/>
	<line class="st1" x1="44.3" y1="40.7" x2="44.3" y2="48.5"/>
	<path class="st2" d="M25.3,40.4h21.3c2.2,0,4,1.8,4,4v0c0,2.2-1.8,4-4,4H25.3c-2.2,0-4-1.8-4-4v0C21.3,42.2,23.1,40.4,25.3,40.4z"
		/>
</g>
</svg>
