<?xml version="1.0" encoding="utf-8"?>
<!-- Generator: Adobe Illustrator 22.0.1, SVG Export Plug-In . SVG Version: 6.00 Build 0)  -->
<svg version="1.1" id="emoji" xmlns="http://www.w3.org/2000/svg" xmlns:xlink="http://www.w3.org/1999/xlink" x="0px" y="0px"
	 viewBox="0 0 72 72" style="enable-background:new 0 0 72 72;" xml:space="preserve">
<style type="text/css">
	.st0{fill:#9B9B9A;}
	.st1{fill:#D0CFCE;}
	.st2{fill:none;stroke:#000000;stroke-width:2;stroke-linecap:round;stroke-linejoin:round;stroke-miterlimit:10;}
	.st3{fill:none;stroke:#000000;stroke-width:2;stroke-linecap:round;stroke-miterlimit:10;}
</style>
<g id="color">
	<path class="st0" d="M58.3,54.6l-1.9,1.9c-0.9,0.9-2.5,0.9-3.4,0l-4.9-4.9c-0.9-0.9-0.9-2.5,0-3.4l1.9-1.9c0.9-0.9,2.5-0.9,3.4,0
		l4.9,4.9C59.2,52.1,59.2,53.6,58.3,54.6z"/>
	<path class="st1" d="M50.4,48.1l-0.5,0.5c-0.3,0.3-0.8,0.3-1,0L47.2,47c-0.3-0.3-0.3-0.8,0-1l0.5-0.5c0.3-0.3,0.8-0.3,1,0l1.6,1.6
		C50.6,47.4,50.6,47.9,50.4,48.1z"/>
</g>
<g id="line">
	<line class="st2" x1="47.7" y1="46.1" x2="24" y2="46"/>
	<line class="st2" x1="24.6" y1="46.3" x2="24.6" y2="49.6"/>
	<line class="st2" x1="26.5" y1="42.4" x2="26.5" y2="45.7"/>
	<line class="st2" x1="28.4" y1="46.3" x2="28.4" y2="49.6"/>
	<line class="st2" x1="30.3" y1="42.4" x2="30.3" y2="45.7"/>
	<line class="st2" x1="32.3" y1="46.3" x2="32.3" y2="49.6"/>
	<line class="st2" x1="34.2" y1="42.4" x2="34.2" y2="45.7"/>
	<line class="st2" x1="36.1" y1="46.3" x2="36.1" y2="49.6"/>
	<line class="st2" x1="38" y1="42.4" x2="38" y2="45.7"/>
	<line class="st2" x1="39.9" y1="46.3" x2="39.9" y2="49.6"/>
	<line class="st2" x1="41.8" y1="42.4" x2="41.8" y2="45.7"/>
	<line class="st2" x1="43.8" y1="46.3" x2="43.8" y2="49.6"/>
	<line class="st2" x1="45.7" y1="42.4" x2="45.7" y2="45.7"/>
	<path class="st3" d="M50.9,45.7c0.8-0.3,1.8-0.1,2.5,0.6l4.9,4.9c0.9,0.9,0.9,2.5,0,3.4l-1.9,1.9c-0.9,0.9-2.5,0.9-3.4,0l-4.9-4.9
		c-0.6-0.6-0.8-1.6-0.6-2.4"/>
</g>
</svg>
