<?xml version="1.0" encoding="utf-8"?>
<!-- Generator: Adobe Illustrator 22.0.1, SVG Export Plug-In . SVG Version: 6.00 Build 0)  -->
<svg version="1.1" id="emoji" xmlns="http://www.w3.org/2000/svg" xmlns:xlink="http://www.w3.org/1999/xlink" x="0px" y="0px"
	 viewBox="0 0 72 72" style="enable-background:new 0 0 72 72;" xml:space="preserve">
<style type="text/css">
	.st0{fill:#FFFFFF;}
	.st1{fill:#B1CC33;}
	.st2{fill:none;stroke:#000000;stroke-width:2;stroke-linecap:round;stroke-linejoin:round;stroke-miterlimit:10;}
</style>
<g id="color">
	<path class="st0" d="M30.5,53.2c-4.3-1.5-6.5-4.8-6.5-8.7h0.1c0,0,12.1,3.1,23.7,0.1l0.2-0.1c0,3.9-2.1,7.2-6.4,8.7"/>
	<path class="st1" d="M40.5,49.2c0,0,1.5,8.8-1.1,10.9l0,0c-3.8,3.4-7.1-0.1-7,0c-2.6-2.1-1.1-10.9-1.1-10.9"/>
</g>
<g id="line">
	<path class="st2" d="M30.5,53.2c-4.3-1.5-6.5-4.8-6.5-8.7h0.1c0,0,12.1,3.1,23.7,0.1l0.2-0.1c0,3.9-2.1,7.2-6.4,8.7"/>
	<path class="st2" d="M40.5,49.2c0,0,1.5,8.8-1.1,10.9l0,0c-3.8,3.4-7.1-0.1-7,0c-2.6-2.1-1.1-10.9-1.1-10.9"/>
	<path class="st2" d="M37.9,53c-0.2-0.7-1-1.3-2-1.3h0c-1.1,0-2,0.7-2,1.6s0.9,1.6,2,1.6l0,0c1.1,0,2,0.7,2,1.6s-0.9,1.6-2,1.6l0,0
		c-1,0-1.8-0.5-2-1.3"/>
	<line class="st2" x1="35.9" y1="51.7" x2="35.9" y2="50.2"/>
	<line class="st2" x1="35.9" y1="59.6" x2="35.9" y2="58.1"/>
</g>
</svg>
