<?xml version="1.0" encoding="utf-8"?>
<!-- Generator: Adobe Illustrator 22.0.1, SVG Export Plug-In . SVG Version: 6.00 Build 0)  -->
<svg version="1.1" id="emoji" xmlns="http://www.w3.org/2000/svg" xmlns:xlink="http://www.w3.org/1999/xlink" x="0px" y="0px"
	 viewBox="0 0 72 72" style="enable-background:new 0 0 72 72;" xml:space="preserve">
<style type="text/css">
	.st0{fill:#FFFFFF;}
	.st1{fill:none;stroke:#000000;stroke-width:2;stroke-miterlimit:10;}
	.st2{fill:none;stroke:#000000;stroke-width:2;stroke-linecap:round;stroke-linejoin:round;stroke-miterlimit:10;}
</style>
<g id="color">
	<path class="st0" d="M29.8,47.4c-0.3,1.7-0.4,5.5,3.9,4.6v-4.4c0,0-0.3,0-0.7-0.1"/>
	<path class="st0" d="M37.8,47.4c0.3,1.7,0.4,5.5-3.9,4.6v-4.4c0,0,0.3,0,0.7-0.1"/>
</g>
<g id="line">
	<path class="st1" d="M29.8,47.4c-0.3,1.7-0.4,5.5,3.9,4.6v-4.4c0,0-0.3,0-0.7-0.1"/>
	<path class="st1" d="M37.8,47.4c0.3,1.7,0.4,5.5-3.9,4.6v-4.4c0,0,0.3,0,0.7-0.1"/>
	<path class="st2" d="M43.7,44.9c-6.6,3.5-14,3.7-19.6,0"/>
</g>
</svg>
