<?xml version="1.0" encoding="utf-8"?>
<!-- Generator: Adobe Illustrator 22.0.1, SVG Export Plug-In . SVG Version: 6.00 Build 0)  -->
<svg version="1.1" id="emoji" xmlns="http://www.w3.org/2000/svg" xmlns:xlink="http://www.w3.org/1999/xlink" x="0px" y="0px"
	 viewBox="0 0 72 72" style="enable-background:new 0 0 72 72;" xml:space="preserve">
<style type="text/css">
	.st0{fill:none;stroke:#000000;stroke-width:2;stroke-linecap:round;stroke-linejoin:round;stroke-miterlimit:10;}
</style>
<g id="line">
	<path class="st0" d="M33.8,39.8c-1.4-0.2-2.8-0.7-4-1.5"/>
	<path class="st0" d="M41.9,38.3c-1.4,0.7-2.8,1.2-4.2,1.5"/>
	<path class="st0" d="M39.5,59.3c-3.8,3.3-10.4,3.4-12.8-1c0,0-1.8-2.5-0.2-7.2c0,0,0.7-2.8,1-3.7c0.3-0.7,0.7-1.3,2.9-1.4
		c2.5-0.2,4.2-1.1,9.8,0.5c1.5,0.4,4.1,1.5,3.3,5c0,0-0.2,2.3-2.4,1.6"/>
	<path class="st0" d="M46.2,57.3c1.1,0.1,2-0.7,2-1.8c0.1-1.1-0.7-2-1.8-2"/>
	<line class="st0" x1="41.1" y1="53.4" x2="46.4" y2="53.4"/>
	<path class="st0" d="M44.6,57.4c-1.6,0-3.4,0.4-5.2,2"/>
	<line class="st0" x1="46.2" y1="57.3" x2="44.5" y2="57.4"/>
	<path class="st0" d="M37.9,54.4c0.6,0.6,1.6,0.7,2.3,0.2c0.8-0.5,1-1.4,0.8-2.3c-0.3-1.1-0.6-2.7-2.7-3.4"/>
	<path class="st0" d="M34.6,49.6c2.1,0,2.9,4.5,2.9,4.5c0.5,1.8-0.2,3.5-1.4,3.8c-1.2,0.3-2.6-0.9-3.1-2.7c0,0-0.6-2.1-1.3-2.8"/>
	<path class="st0" d="M37.7,36.9c0-1.1-0.9-1.9-1.9-1.9s-1.9,0.9-1.9,1.9"/>
	<line class="st0" x1="33.8" y1="45.6" x2="33.8" y2="36.9"/>
	<line class="st0" x1="37.7" y1="36.9" x2="37.7" y2="45.7"/>
</g>
</svg>
