<?xml version="1.0" encoding="utf-8"?>
<!-- Generator: Adobe Illustrator 22.0.1, SVG Export Plug-In . SVG Version: 6.00 Build 0)  -->
<svg version="1.1" id="emoji" xmlns="http://www.w3.org/2000/svg" xmlns:xlink="http://www.w3.org/1999/xlink" x="0px" y="0px"
	 viewBox="0 0 72 72" style="enable-background:new 0 0 72 72;" xml:space="preserve">
<g id="line">
	<path id="SVGID_3_" d="M41.2,46.4c-0.1,0-0.2,0-0.3-0.1c-1.4-0.7-8.3-0.7-9.7,0c-0.2,0.1-0.4,0.1-0.6,0c-0.2-0.1-0.3-0.3-0.4-0.5
		c-0.2-0.5,0-1,0.4-1.3c1.8-0.9,9.1-0.9,10.9,0c0.4,0.3,0.6,0.8,0.4,1.3C41.9,46.1,41.5,46.4,41.2,46.4z"/>
	<path id="SVGID_5_" d="M31.4,45.6c-0.1,1.4-0.8,2.6-1.9,3.4c-0.4,0.3-1,0.2-1.4-0.1c-0.2-0.1-0.3-0.3-0.3-0.5
		c0-0.2,0.1-0.4,0.3-0.5c0.7-0.6,1.2-1.5,1.2-2.5c0-1-0.3-1.9-1-2.5c-0.2-0.1-0.3-0.3-0.3-0.5c0-0.2,0.1-0.4,0.3-0.5
		c0.4-0.2,1-0.2,1.4,0.1C30.8,42.9,31.4,44.2,31.4,45.6z"/>
	<path id="SVGID_7_" d="M41.1,45.5c0,1.4,0.6,2.7,1.6,3.5c0.4,0.3,1,0.3,1.4,0c0.2-0.1,0.3-0.3,0.3-0.5c0-0.2-0.1-0.4-0.3-0.5
		c-0.7-0.7-1.1-1.6-1.1-2.5c0-1,0.5-1.9,1.2-2.5c0.2-0.1,0.3-0.3,0.3-0.5c0-0.2-0.1-0.4-0.3-0.5c-0.4-0.3-1-0.3-1.4,0
		C41.8,42.8,41.1,44.1,41.1,45.5z"/>
</g>
</svg>
