<?xml version="1.0" encoding="utf-8"?>
<!-- Generator: Adobe Illustrator 22.0.1, SVG Export Plug-In . SVG Version: 6.00 Build 0)  -->
<svg version="1.1" id="emoji" xmlns="http://www.w3.org/2000/svg" xmlns:xlink="http://www.w3.org/1999/xlink" x="0px" y="0px"
	 viewBox="0 0 72 72" style="enable-background:new 0 0 72 72;" xml:space="preserve">
<style type="text/css">
	.st0{fill:#EA5A47;}
	.st1{fill:none;stroke:#FFFFFF;stroke-width:4;stroke-linejoin:round;stroke-miterlimit:10;}
	.st2{fill:none;stroke:#000000;stroke-width:2;stroke-linecap:round;stroke-linejoin:round;stroke-miterlimit:10;}
	.st3{fill:none;stroke:#000000;stroke-width:2;stroke-linejoin:round;stroke-miterlimit:10;}
</style>
<g id="color">
	<path class="st0" d="M50.7,51.2c-13.8,3.5-28.3-0.1-28.3-0.1l0.3,0.1v0c1.8,4.3,6.4,7.4,13.8,7.4c7.3,0,11.9-3,13.7-7.2L50.7,51.2z
		"/>
	<path class="st1" d="M22.4,49.3c0,0,14.5,3.6,28.3,0.1"/>
</g>
<g id="line">
	<path class="st2" d="M32.8,27.7"/>
	<path class="st2" d="M50.5,49"/>
	<path class="st2" d="M22,46.8c0,0,14.8,3.6,28.9,0.1"/>
	<path class="st2" d="M51.1,46.8c0,6.5-4.8,11.7-14.6,11.7c-9.7,0-14.6-5.2-14.6-11.7"/>
	<path class="st3" d="M22.4,51.1c0,0,14.5,3.6,28.3,0.1"/>
</g>
</svg>
