<?xml version="1.0" encoding="utf-8"?>
<!-- Generator: Adobe Illustrator 22.0.1, SVG Export Plug-In . SVG Version: 6.00 Build 0)  -->
<svg version="1.1" id="emoji" xmlns="http://www.w3.org/2000/svg" xmlns:xlink="http://www.w3.org/1999/xlink" x="0px" y="0px"
	 viewBox="0 0 72 72" style="enable-background:new 0 0 72 72;" xml:space="preserve">
<style type="text/css">
	.st0{fill:#FFFFFF;}
	.st1{fill:#EA5A47;}
	.st2{fill:none;stroke:#000000;stroke-width:2;stroke-linecap:round;stroke-linejoin:round;stroke-miterlimit:10;}
</style>
<g id="color">
	<path class="st0" d="M44.5,44.3c-0.3,0.3-5,7.3-9.9,6.1c-4.5-1.2-5.5-8.9-5.7-9.4C34,42.1,39.2,43.2,44.5,44.3z"/>
	<path class="st1" d="M43.3,44.4c-1.3,5.9-4.6,10.3-7.4,9.6s-4-5.9-2.7-11.9L43.3,44.4z"/>
</g>
<g id="line">
	<path class="st2" d="M28.8,41c0.2,0.5-0.5,6.7,4.1,8.9"/>
	<path class="st2" d="M42.3,47.8C42.3,47.8,42.3,47.8,42.3,47.8c1.4-1.6,2-3.4,2.2-3.5"/>
	<path class="st2" d="M28.8,41c5.2,1.1,10.4,2.2,15.6,3.3"/>
	<path class="st2" d="M43.3,44.4c-1.3,5.9-4.6,10.3-7.4,9.6s-4-5.9-2.7-11.9"/>
</g>
</svg>
