<?xml version="1.0" encoding="utf-8"?>
<!-- Generator: Adobe Illustrator 22.0.1, SVG Export Plug-In . SVG Version: 6.00 Build 0)  -->
<svg version="1.1" id="emoji" xmlns="http://www.w3.org/2000/svg" xmlns:xlink="http://www.w3.org/1999/xlink" x="0px" y="0px"
	 viewBox="0 0 72 72" style="enable-background:new 0 0 72 72;" xml:space="preserve">
<style type="text/css">
	.st0{fill:#EA5A47;}
	.st1{fill:#92D3F5;}
	.st2{fill:none;stroke:#000000;stroke-width:2;stroke-linecap:round;stroke-linejoin:round;stroke-miterlimit:10;}
</style>
<g id="color">
	<path class="st0" d="M49.7,45.4c0,3.6-4,6.4-11.9,6.4c-8,0-12-2.8-12-6.4h0.1c0,0,12.1,3.1,23.7,0.1L49.7,45.4z"/>
	<path class="st1" d="M44.5,56.8c0,0.7-0.6,1.3-1.2,1.3l0,0c-0.7,0-1.2-0.6-1.2-1.3V55v-2.6l3.3-1.2l2.7-1.6v6.8V61
		c0,0.9-0.8,1.6-1.7,1.6l0,0c-1,0-1.7-0.7-1.7-1.6v-4.7"/>
</g>
<g id="line">
	<path class="st2" d="M49.7,45.4c0,3.6-4,6.4-11.9,6.4c-8,0-12-2.8-12-6.4h0.1c0,0,12.1,3.1,23.7,0.1L49.7,45.4z"/>
	<path class="st2" d="M44.5,56.8c0,0.7-0.6,1.3-1.2,1.3l0,0c-0.7,0-1.2-0.6-1.2-1.3V55v-2.6l3.3-1.2l2.7-1.6v6.8V61
		c0,0.9-0.8,1.6-1.7,1.6l0,0c-1,0-1.7-0.7-1.7-1.6v-4.7"/>
</g>
</svg>
