<?xml version="1.0" encoding="utf-8"?>
<!-- Generator: Adobe Illustrator 22.0.1, SVG Export Plug-In . SVG Version: 6.00 Build 0)  -->
<svg version="1.1" id="emoji" xmlns="http://www.w3.org/2000/svg" xmlns:xlink="http://www.w3.org/1999/xlink" x="0px" y="0px"
	 viewBox="0 0 72 72" style="enable-background:new 0 0 72 72;" xml:space="preserve">
<style type="text/css">
	.st0{fill:#FFFFFF;}
	.st1{fill:none;stroke:#000000;stroke-width:2;stroke-miterlimit:2;}
</style>
<g id="color">
	<path class="st0" d="M37.9,46.9h-9.9c-1.3,0-2.3-1.5-2.3-3.3l0,0c0-1.8,1-3.3,2.3-3.3h9.9c1.3,0,2.3,1.5,2.3,3.3l0,0
		C40.3,45.4,39.2,46.9,37.9,46.9z"/>
</g>
<g id="line">
	<path class="st1" d="M37.9,46.9h-9.9c-1.3,0-2.3-1.5-2.3-3.3l0,0c0-1.8,1-3.3,2.3-3.3h9.9c1.3,0,2.3,1.5,2.3,3.3l0,0
		C40.3,45.4,39.2,46.9,37.9,46.9z"/>
</g>
</svg>
