<?xml version="1.0" encoding="utf-8"?>
<!-- Generator: Adobe Illustrator 22.0.1, SVG Export Plug-In . SVG Version: 6.00 Build 0)  -->
<svg version="1.1" id="emoji" xmlns="http://www.w3.org/2000/svg" xmlns:xlink="http://www.w3.org/1999/xlink" x="0px" y="0px"
	 viewBox="0 0 72 72" style="enable-background:new 0 0 72 72;" xml:space="preserve">
<style type="text/css">
	.st0{fill:none;stroke:#FFFFFF;stroke-width:4;stroke-linejoin:round;stroke-miterlimit:10;}
	.st1{fill:#EA5A47;}
	.st2{fill:none;stroke:#000000;stroke-width:2;stroke-linecap:round;stroke-linejoin:round;stroke-miterlimit:10;}
</style>
<g id="color">
	<path class="st0" d="M24.5,49.3c0,0,14.7-2.3,26-10.9"/>
	<path class="st1" d="M50.8,40.3c0.1,4.6-2.9,9.2-9.7,12.1c-6.8,3-12.2,2-15.6-1.2C27.6,50.8,40.6,48.1,50.8,40.3z"/>
</g>
<g id="line">
	<path class="st2" d="M49.8,35.9c0.6,1.5,1,3,1,4.5c-10.2,7.8-23.2,10.5-25.2,10.9c-1-1-1.9-2.2-2.5-3.7l0.1,0c0,0,15-2.6,26.5-11.5
		L49.8,35.9z"/>
	<path class="st2" d="M50.8,40.3c0.1,4.6-2.9,9.2-9.7,12.1c-6.8,3-12.2,2-15.6-1.2C27.6,50.8,40.6,48.1,50.8,40.3z"/>
</g>
</svg>
