<?xml version="1.0" encoding="utf-8"?>
<!-- Generator: Adobe Illustrator 24.0.1, SVG Export Plug-In . SVG Version: 6.00 Build 0)  -->
<svg version="1.1" id="emoji" xmlns="http://www.w3.org/2000/svg" xmlns:xlink="http://www.w3.org/1999/xlink" x="0px" y="0px"
	 viewBox="0 0 72 72" style="enable-background:new 0 0 72 72;" xml:space="preserve">
<style type="text/css">
	.st0{fill:#92D3F5;}
</style>
<g id="color">
	<path class="st0" d="M53.8,17.2c-1.1,1.3-3.3,4.2-3.3,7c0,0.9,0.3,1.7,1,2.3c0.6,0.6,1.4,1,2.3,1c1.7,0,3.3-1.5,3.3-3.3l0,0
		C57.1,21.4,55,18.5,53.8,17.2z"/>
</g>
<g id="hair">
</g>
<g id="skin">
</g>
<g id="skin-shadow">
</g>
<g id="line">
	<path d="M57.6,27.9c-1,1-2.3,1.5-3.7,1.5c-1.4,0-2.7-0.5-3.7-1.5c-1-1-1.5-2.3-1.5-3.7c0-4.6,4.4-9,4.5-9.2c0.4-0.4,1-0.4,1.4,0
		c0.2,0.2,4.5,4.6,4.5,9.2l0,0C59.1,25.6,58.5,26.9,57.6,27.9z M53.8,17.2c-1.1,1.3-3.3,4.2-3.3,7c0,0.9,0.3,1.7,1,2.3
		c0.6,0.6,1.4,1,2.3,1c1.7,0,3.3-1.5,3.3-3.3l0,0C57.1,21.4,55,18.5,53.8,17.2z"/>
</g>
</svg>
