<?xml version="1.0" encoding="utf-8"?>
<!-- Generator: Adobe Illustrator 24.0.1, SVG Export Plug-In . SVG Version: 6.00 Build 0)  -->
<svg version="1.1" id="emoji" xmlns="http://www.w3.org/2000/svg" xmlns:xlink="http://www.w3.org/1999/xlink" x="0px" y="0px"
	 viewBox="0 0 72 72" style="enable-background:new 0 0 72 72;" xml:space="preserve">
<style type="text/css">
	.st0{fill:#92D3F5;}
</style>
<g id="color">
	<path class="st0" d="M14.4,39.9c-1.9,0.2-5.6,0.7-7.7,2.8c-0.7,0.7-1,1.5-1,2.5c0,0.9,0.4,1.8,1,2.5c1.3,1.3,3.6,1.3,4.9,0l0,0
		C13.7,45.5,14.3,41.8,14.4,39.9z"/>
	<path class="st0" d="M59.6,47.6L59.6,47.6c1.3,1.3,3.6,1.3,4.9,0c0.7-0.7,1-1.5,1-2.5c0-0.9-0.4-1.8-1-2.5
		c-2.1-2.1-5.9-2.7-7.7-2.8C56.9,41.8,57.5,45.5,59.6,47.6z"/>
</g>
<g id="hair">
</g>
<g id="skin">
</g>
<g id="skin-shadow">
</g>
<g id="line">
	<path d="M9.2,50.7c-1.5,0-2.9-0.6-3.9-1.6c-1.1-1.1-1.6-2.4-1.6-3.9c0-1.5,0.6-2.9,1.6-3.9c3.5-3.5,10-3.5,10.3-3.5
		c0.6,0,1,0.5,1,1c0,0.3,0,6.9-3.5,10.3l0,0C12,50.2,10.7,50.7,9.2,50.7z M14.4,39.9c-1.9,0.2-5.6,0.7-7.7,2.8c-0.7,0.7-1,1.5-1,2.5
		c0,0.9,0.4,1.8,1,2.5c1.3,1.3,3.6,1.3,4.9,0l0,0C13.7,45.5,14.3,41.8,14.4,39.9z"/>
	<path d="M58.1,49.1L58.1,49.1c-3.5-3.5-3.5-10-3.5-10.3c0-0.6,0.5-1,1-1c0.3,0,6.9,0,10.3,3.5c1.1,1,1.6,2.4,1.6,3.9
		c0,1.5-0.6,2.9-1.6,3.9c-1.1,1.1-2.4,1.6-3.9,1.6C60.5,50.7,59.2,50.2,58.1,49.1z M59.6,47.6L59.6,47.6c1.3,1.3,3.6,1.3,4.9,0
		c0.7-0.7,1-1.5,1-2.5c0-0.9-0.4-1.8-1-2.5c-2.1-2.1-5.9-2.7-7.7-2.8C56.9,41.8,57.5,45.5,59.6,47.6z"/>
</g>
</svg>
