<?xml version="1.0" encoding="utf-8"?>
<!-- Generator: Adobe Illustrator 24.0.1, SVG Export Plug-In . SVG Version: 6.00 Build 0)  -->
<svg version="1.1" id="emoji" xmlns="http://www.w3.org/2000/svg" xmlns:xlink="http://www.w3.org/1999/xlink" x="0px" y="0px"
	 viewBox="0 0 72 72" style="enable-background:new 0 0 72 72;" xml:space="preserve">
<style type="text/css">
	.st0{fill:#92D3F5;}
	.st1{fill:none;stroke:#000000;stroke-width:2;stroke-miterlimit:10;}
</style>
<g id="color">
	<path class="st0" d="M23.8,12c-1.9,2-4.6,5.3-4.9,9.6c-0.2,2.7,2,5.3,4.7,5.5c2.8,0.2,5.3-1.9,5.5-4.7l0,0C29.5,18,26,14,23.8,12z"
		/>
</g>
<g id="hair">
</g>
<g id="skin">
</g>
<g id="skin-shadow">
</g>
<g id="line">
	<path class="st1" d="M20.6,25c-1-1-1.5-2.2-1.5-3.6c0-4.5,4.2-8.7,4.4-8.9c0.4-0.4,1-0.4,1.3,0c0.2,0.2,4.4,4.4,4.4,8.9l0,0
		c0,2.8-2.3,5.1-5.1,5.1C22.8,26.5,21.5,26,20.6,25z"/>
</g>
</svg>
