<?xml version="1.0" encoding="utf-8"?>
<!-- Generator: Adobe Illustrator 24.0.1, SVG Export Plug-In . SVG Version: 6.00 Build 0)  -->
<svg version="1.1" id="emoji" xmlns="http://www.w3.org/2000/svg" xmlns:xlink="http://www.w3.org/1999/xlink" x="0px" y="0px"
	 viewBox="0 0 72 72" style="enable-background:new 0 0 72 72;" xml:space="preserve">
<style type="text/css">
	.st0{fill:#D22F27;}
	.st1{fill:none;stroke:#000000;stroke-miterlimit:10;}
</style>
<g id="color">
	<path class="st0" d="M53.7,44.4c-1.9-0.6-3.9,0.5-4.5,2.4c-0.2,0.6-0.2,1.3,0,1.9l0.1,0.4l3.8,9.7l8.6-6.1c0.6-0.5,1.1-1.1,1.3-1.8
		c0.6-1.9-0.5-3.9-2.4-4.5c-1.3-0.4-2.8,0-3.7,1c-0.1,0.1-0.2,0.1-0.3,0.1c-0.1,0-0.2-0.1-0.2-0.3C56,45.9,55,44.8,53.7,44.4z"/>
</g>
<g id="hair">
</g>
<g id="skin">
</g>
<g id="skin-shadow">
</g>
<g id="line">
	<path class="st1" d="M52.8,59.7c-0.1,0-0.2-0.1-0.2-0.2l-4-10.1L48.6,49c-0.2-0.8-0.2-1.6,0-2.3c0.7-2.2,3-3.5,5.3-2.9
		c1.4,0.4,2.4,1.5,2.8,2.8c1.1-0.9,2.5-1.2,3.9-0.8c2.2,0.7,3.5,3,2.9,5.3c-0.3,0.9-0.8,1.6-1.5,2.2l-8.9,6.3
		C53,59.7,52.9,59.7,52.8,59.7z M53.7,44.4c-1.9-0.6-3.9,0.5-4.5,2.4c-0.2,0.6-0.2,1.3,0,1.9l0.1,0.4l3.8,9.7l8.6-6.1
		c0.6-0.5,1.1-1.1,1.3-1.8c0.6-1.9-0.5-3.9-2.4-4.5c-1.3-0.4-2.8,0-3.7,1c-0.1,0.1-0.2,0.1-0.3,0.1c-0.1,0-0.2-0.1-0.2-0.3
		C56,45.9,55,44.8,53.7,44.4z"/>
</g>
</svg>
