<?xml version="1.0" encoding="utf-8"?>
<!-- Generator: Adobe Illustrator 24.0.1, SVG Export Plug-In . SVG Version: 6.00 Build 0)  -->
<svg version="1.1" id="emoji" xmlns="http://www.w3.org/2000/svg" xmlns:xlink="http://www.w3.org/1999/xlink" x="0px" y="0px"
	 viewBox="0 0 72 72" style="enable-background:new 0 0 72 72;" xml:space="preserve">
<style type="text/css">
	.st0{fill:#92D3F5;}
	.st1{fill:none;stroke:#000000;stroke-width:2;stroke-miterlimit:10;}
</style>
<g id="color">
	<path class="st0" d="M47,42.9c-0.2,2.8-0.1,7.1,2.5,10.6c1.6,2.2,5,2.7,7.2,1c2.3-1.7,2.7-4.9,1-7.2l0,0
		C55.1,43.9,49.7,43.5,47,42.9z"/>
</g>
<g id="hair">
</g>
<g id="skin">
</g>
<g id="skin-shadow">
</g>
<g id="line">
	<path class="st1" d="M53,55c-1.3-0.1-2.6-0.7-3.5-1.7C46.6,49.9,47,44,47,43.7c0-0.5,0.5-0.9,1-0.9c0.3,0,6.2,0.5,9.2,3.8h0
		c1.8,2.1,1.6,5.3-0.5,7.1C55.7,54.7,54.4,55.1,53,55z"/>
</g>
</svg>
