<?xml version="1.0" encoding="utf-8"?>
<!-- Generator: Adobe Illustrator 24.0.1, SVG Export Plug-In . SVG Version: 6.00 Build 0)  -->
<svg version="1.1" id="emoji" xmlns="http://www.w3.org/2000/svg" xmlns:xlink="http://www.w3.org/1999/xlink" x="0px" y="0px"
	 viewBox="0 0 72 72" style="enable-background:new 0 0 72 72;" xml:space="preserve">
<style type="text/css">
	.st0{fill:#D0CFCE;}
	.st1{fill:none;stroke:#000000;stroke-width:2;stroke-linecap:round;stroke-linejoin:round;}
</style>
<g id="color">
	<path class="st0" d="M42,37.5l13.7,6.3c0,0,3.8-4.4,7.4-0.8c1.8,1.7,1.9,4.5,0.2,6.3c0,0,0,0,0,0c0,0,0,0-0.1,0.1
		c0,0,3.5,3.3,0.3,6.5c-1.6,1.7-4.2,1.8-6,0.3c0,0-2.5,3.8-6.1-0.2s0.8-7.4,0.8-7.4L42,37.5z"/>
	<path class="st0" d="M30.9,37.5l-13.7,6.3c0,0-3.8-4.4-7.4-0.8c-1.8,1.7-1.9,4.5-0.2,6.3c0,0,0,0,0,0c0,0,0,0,0.1,0.1
		c0,0-3.5,3.3-0.3,6.5c1.6,1.7,4.2,1.8,6,0.3c0,0,2.5,3.8,6.1-0.2s-0.8-7.4-0.8-7.4L30.9,37.5z"/>
</g>
<g id="line">
	<path class="st1" d="M30.9,37.5l-13.7,6.3c0,0-3.8-4.4-7.4-0.8c-1.8,1.7-1.9,4.5-0.2,6.3c0,0,0,0,0,0c0,0,0,0,0.1,0.1
		c0,0-3.5,3.3-0.3,6.5c1.6,1.7,4.2,1.8,6,0.3c0,0,2.5,3.8,6.1-0.2s-0.8-7.4-0.8-7.4L30.9,37.5z"/>
	<path class="st1" d="M42,37.5l13.7,6.3c0,0,3.8-4.4,7.4-0.8c1.8,1.7,1.9,4.5,0.2,6.3c0,0,0,0,0,0c0,0,0,0-0.1,0.1
		c0,0,3.5,3.3,0.3,6.5c-1.6,1.7-4.2,1.8-6,0.3c0,0-2.5,3.8-6.1-0.2s0.8-7.4,0.8-7.4L42,37.5z"/>
</g>
</svg>
