<?xml version="1.0" encoding="utf-8"?>
<!-- Generator: Adobe Illustrator 24.0.1, SVG Export Plug-In . SVG Version: 6.00 Build 0)  -->
<svg version="1.1" id="emoji" xmlns="http://www.w3.org/2000/svg" xmlns:xlink="http://www.w3.org/1999/xlink" x="0px" y="0px"
	 viewBox="0 0 72 72" style="enable-background:new 0 0 72 72;" xml:space="preserve">
<style type="text/css">
	.st0{fill:#92D3F5;}
	.st1{fill:none;stroke:#000000;stroke-width:2;stroke-miterlimit:10;}
</style>
<g id="color">
	<path class="st0" d="M14.7,47.4L14.7,47.4c-1.7,2.3-1.2,5.5,1,7.2c2.2,1.6,5.5,1.2,7.2-1c2.6-3.5,2.7-7.8,2.5-10.6
		C22.8,43.5,17.4,43.9,14.7,47.4z"/>
</g>
<g id="hair">
</g>
<g id="skin">
</g>
<g id="skin-shadow">
</g>
<g id="line">
	<path class="st1" d="M19.5,55c1.3-0.1,2.6-0.7,3.5-1.7c2.9-3.4,2.6-9.3,2.5-9.6c0-0.5-0.5-0.9-1-0.9c-0.3,0-6.2,0.5-9.2,3.8h0
		c-1.8,2.1-1.6,5.3,0.5,7.1C16.8,54.7,18.1,55.1,19.5,55z"/>
</g>
</svg>
