<?xml version="1.0" encoding="utf-8"?>
<!-- Generator: Adobe Illustrator 24.0.1, SVG Export Plug-In . SVG Version: 6.00 Build 0)  -->
<svg version="1.1" id="emoji" xmlns="http://www.w3.org/2000/svg" xmlns:xlink="http://www.w3.org/1999/xlink" x="0px" y="0px"
	 viewBox="0 0 72 72" style="enable-background:new 0 0 72 72;" xml:space="preserve">
<style type="text/css">
	.st0{fill:#92D3F5;}
	.st1{fill:none;stroke:#000000;stroke-width:2;stroke-miterlimit:10;}
</style>
<g id="color">
	<path class="st0" d="M22.8,33.8c-1.1,1.1-3.1,3.5-3.3,5.9c-0.1,1.5,1.1,2.9,2.6,3.1c1.6,0.1,2.9-1.1,3.1-2.6l0,0
		C25.4,37.7,23.7,35.1,22.8,33.8z"/>
</g>
<g id="hair">
</g>
<g id="skin">
</g>
<g id="skin-shadow">
</g>
<g id="line">
	<path class="st1" d="M20.4,41.6c-0.5-0.5-0.8-1.2-0.8-2c0-2.5,2.3-4.9,2.4-5c0.2-0.2,0.5-0.2,0.8,0c0.1,0.1,2.4,2.5,2.4,5l0,0
		c0,1.6-1.3,2.8-2.8,2.8C21.6,42.5,20.9,42.2,20.4,41.6z"/>
</g>
</svg>
