<?xml version="1.0" encoding="utf-8"?>
<!-- Generator: Adobe Illustrator 24.0.1, SVG Export Plug-In . SVG Version: 6.00 Build 0)  -->
<svg version="1.1" id="emoji" xmlns="http://www.w3.org/2000/svg" xmlns:xlink="http://www.w3.org/1999/xlink" x="0px" y="0px"
	 viewBox="0 0 72 72" style="enable-background:new 0 0 72 72;" xml:space="preserve">
<style type="text/css">
	.st0{fill:#92D3F5;}
	.st1{fill:none;stroke:#000000;stroke-width:2;stroke-miterlimit:10;}
</style>
<g id="color">
	<path class="st0" d="M19.9,20c-2.1,0.5-6.4,1.9-8.4,4.8c-1.3,1.8-0.8,4.4,0.9,5.7c1.8,1.3,4.4,0.9,5.7-0.9l0,0
		C20.2,26.6,20.1,22.2,19.9,20z"/>
</g>
<g id="hair">
</g>
<g id="skin">
</g>
<g id="skin-shadow">
</g>
<g id="line">
	<path class="st1" d="M11.2,27.7c-0.3-1-0.1-2.1,0.5-3c1.8-3,6.4-4.2,6.6-4.2c0.4-0.1,0.8,0.1,0.9,0.6c0,0.2,1.1,4.8-0.7,7.8l0,0
		c-1.1,1.9-3.6,2.5-5.5,1.3C12.1,29.6,11.5,28.8,11.2,27.7z"/>
</g>
</svg>
