<?xml version="1.0" encoding="utf-8"?>
<!-- Generator: Adobe Illustrator 24.0.1, SVG Export Plug-In . SVG Version: 6.00 Build 0)  -->
<svg version="1.1" id="emoji" xmlns="http://www.w3.org/2000/svg" xmlns:xlink="http://www.w3.org/1999/xlink" x="0px" y="0px"
	 viewBox="0 0 72 72" style="enable-background:new 0 0 72 72;" xml:space="preserve">
<style type="text/css">
	.st0{fill:#61B2E4;stroke:#61B2E4;stroke-width:0.1;stroke-miterlimit:10;}
</style>
<g id="hair">
</g>
<g id="skin">
</g>
<g id="skin-shadow">
</g>
<g id="line">
	<path d="M44.4,26h-2.6c-0.4,0-0.7-0.2-0.9-0.5c-0.2-0.3-0.2-0.7,0-1l1.8-3.1h-0.9c-0.6,0-1-0.4-1-1s0.4-1,1-1h2.6
		c0.4,0,0.7,0.2,0.9,0.5c0.2,0.3,0.2,0.7,0,1L43.6,24h0.9c0.6,0,1,0.4,1,1S45,26,44.4,26z"/>
	<path d="M50.6,22h-3.8c-0.4,0-0.7-0.2-0.9-0.5c-0.2-0.3-0.2-0.7,0-1l2.9-5.1h-2c-0.6,0-1-0.4-1-1s0.4-1,1-1h3.8
		c0.4,0,0.7,0.2,0.9,0.5c0.2,0.3,0.2,0.7,0,1L48.6,20h2c0.6,0,1,0.4,1,1S51.1,22,50.6,22z"/>
	<path d="M58.7,27h-4.9c-0.4,0-0.7-0.2-0.9-0.5c-0.2-0.3-0.2-0.7,0-1l4-7.1h-3.2c-0.6,0-1-0.4-1-1s0.4-1,1-1h4.9
		c0.4,0,0.7,0.2,0.9,0.5c0.2,0.3,0.2,0.7,0,1l-4,7.1h3.2c0.6,0,1,0.4,1,1S59.3,27,58.7,27z"/>
</g>
<g id="color-foreground">
	<path class="st0" d="M44.4,26h-2.6c-0.4,0-0.7-0.2-0.9-0.5c-0.2-0.3-0.2-0.7,0-1l1.8-3.1h-0.9c-0.6,0-1-0.4-1-1s0.4-1,1-1h2.6
		c0.4,0,0.7,0.2,0.9,0.5c0.2,0.3,0.2,0.7,0,1L43.6,24h0.9c0.6,0,1,0.4,1,1S45,26,44.4,26z"/>
	<path class="st0" d="M50.6,22h-3.8c-0.4,0-0.7-0.2-0.9-0.5c-0.2-0.3-0.2-0.7,0-1l2.9-5.1h-2c-0.6,0-1-0.4-1-1s0.4-1,1-1h3.8
		c0.4,0,0.7,0.2,0.9,0.5c0.2,0.3,0.2,0.7,0,1L48.6,20h2c0.6,0,1,0.4,1,1S51.1,22,50.6,22z"/>
	<path class="st0" d="M58.7,27h-4.9c-0.4,0-0.7-0.2-0.9-0.5c-0.2-0.3-0.2-0.7,0-1l4-7.1h-3.2c-0.6,0-1-0.4-1-1s0.4-1,1-1h4.9
		c0.4,0,0.7,0.2,0.9,0.5c0.2,0.3,0.2,0.7,0,1l-4,7.1h3.2c0.6,0,1,0.4,1,1S59.3,27,58.7,27z"/>
</g>
</svg>
