<?xml version="1.0" encoding="utf-8"?>
<!-- Generator: Adobe Illustrator 24.0.1, SVG Export Plug-In . SVG Version: 6.00 Build 0)  -->
<svg version="1.1" id="emoji" xmlns="http://www.w3.org/2000/svg" xmlns:xlink="http://www.w3.org/1999/xlink" x="0px" y="0px"
	 viewBox="0 0 72 72" style="enable-background:new 0 0 72 72;" xml:space="preserve">
<style type="text/css">
	.st0{fill:#FFFFFF;}
	.st1{fill:none;stroke:#000000;stroke-width:2;stroke-linecap:round;stroke-linejoin:round;stroke-miterlimit:10;}
</style>
<g id="color">
	<polygon class="st0" points="13.4,34.6 13.4,37.7 16.3,39.9 21.2,43.4 23.9,44.9 24.8,44.9 24.8,43.1 24.8,42.2 22.6,40.9 	"/>
	<polygon class="st0" points="58.4,34.4 58.4,37.5 55.4,39.7 50.5,43.2 47.9,44.7 47,44.7 47,42.9 47,42 49.2,40.7 	"/>
	<path class="st0" d="M45.8,52.7H25.9c-1.2,0-2.1-0.9-2.1-2.1v-9.7c0-1.2,0.9-2.1,2.1-2.1h19.9c1.2,0,2.1,0.9,2.1,2.1v9.7
		C47.9,51.8,46.9,52.7,45.8,52.7z"/>
</g>
<g id="hair">
</g>
<g id="skin">
</g>
<g id="skin-shadow">
</g>
<g id="line">
	<polyline class="st1" points="23.8,45.5 13.1,38.2 13.1,34 23.8,41.3 	"/>
	<polyline class="st1" points="47.9,41.2 59.1,33.9 59.1,38 47.9,45.4 	"/>
	<path class="st1" d="M45.8,52.7H25.9c-1.2,0-2.1-0.9-2.1-2.1v-9.7c0-1.2,0.9-2.1,2.1-2.1h19.9c1.2,0,2.1,0.9,2.1,2.1v9.7
		C47.9,51.8,46.9,52.7,45.8,52.7z"/>
</g>
</svg>
