<?xml version="1.0" encoding="utf-8"?>
<!-- Generator: Adobe Illustrator 24.0.1, SVG Export Plug-In . SVG Version: 6.00 Build 0)  -->
<svg version="1.1" id="emoji" xmlns="http://www.w3.org/2000/svg" xmlns:xlink="http://www.w3.org/1999/xlink" x="0px" y="0px"
	 viewBox="0 0 72 72" style="enable-background:new 0 0 72 72;" xml:space="preserve">
<style type="text/css">
	.st0{fill:#FCEA2B;}
	.st1{fill:none;stroke:#000000;stroke-width:2;stroke-linecap:round;stroke-linejoin:round;stroke-miterlimit:10;}
</style>
<g id="color">
	<path class="st0" d="M52.5,63c0.4-4.1,0.5-3.3,0.4-6.1c-0.6-1.3-1.5-3.2-1.8-5.8c-0.3-2,0-2.7,0.4-7c0.5-5.7,0.2-7,0.9-7.2
		c1.2-0.3,3.9,3.6,5.2,7.2c1.4,3.7,1.1,9.3,1.1,9.3l1.3,5.5"/>
	<path class="st0" d="M19.5,63c-0.4-4.1-0.5-3.3-0.4-6.1c0.6-1.3,1.5-3.2,1.8-5.8c0.3-2,0-2.7-0.4-7c-0.5-5.7-0.2-7-0.9-7.2
		c-1.2-0.3-3.9,3.6-5.2,7.2c-1.4,3.7-1.1,9.3-1.1,9.3L12,58.9"/>
</g>
<g id="hair">
</g>
<g id="skin">
</g>
<g id="skin-shadow">
</g>
<g id="line">
	<path class="st1" d="M19.5,62c-0.4-4.1-0.5-2.3-0.4-5.1c0.6-1.3,1.5-3.2,1.8-5.8c0.3-2,0-2.7-0.4-7c-0.5-5.7-0.2-7-0.9-7.2
		c-1.2-0.3-3.9,3.6-5.2,7.2c-1.4,3.7-1.1,9.3-1.1,9.3L12,57.9"/>
	<path class="st1" d="M52.5,62c0.4-4.1,0.5-2.3,0.4-5.1c-0.6-1.3-1.5-3.2-1.8-5.8c-0.3-2,0-2.7,0.4-7c0.5-5.7,0.2-7,0.9-7.2
		c1.2-0.3,3.9,3.6,5.2,7.2c1.4,3.7,1.1,9.3,1.1,9.3l1.3,4.5"/>
</g>
</svg>
