<?xml version="1.0" encoding="utf-8"?>
<!-- Generator: Adobe Illustrator 24.0.1, SVG Export Plug-In . SVG Version: 6.00 Build 0)  -->
<svg version="1.1" id="emoji" xmlns="http://www.w3.org/2000/svg" xmlns:xlink="http://www.w3.org/1999/xlink" x="0px" y="0px"
	 viewBox="0 0 72 72" style="enable-background:new 0 0 72 72;" xml:space="preserve">
<style type="text/css">
	.st0{fill:#FCEA2B;}
	.st1{fill:none;stroke:#000000;stroke-width:2;stroke-linecap:round;stroke-linejoin:round;stroke-miterlimit:10;}
</style>
<g id="color">
	<path class="st0" d="M25.2,66.2c-0.9-0.6-1.7-1.2-2.2-1.7c-1.4-1.1-4.9-1.5-7.6-2.6c-0.9-0.4-4.5-2.2-6.3-3.1c0,0-1.8-3.1-2.7-3.6
		s1.8-1.4,2.2-2.3c-0.9-0.4-3.6-1.8-3.2-2.7c-0.5-1.5,3.1-1.8,3.6-2.7c0,0,0.9-1.8,2.7-0.9c0.9,0.4,7.2,3.5,7.2,3.5
		c-0.2-0.6,1.6-1.9,1.3-2.7c-0.5-1.3,0-2.2,0-2.2s1.3-0.5,1.8,0.9c0.7,2.1,4.1,5.3,4.5,6.7c0.3,0.9-0.9,4-0.9,4l3.2,2.7"/>
	<path class="st0" d="M47.6,66.2c0.9-0.6,1.7-1.2,2.2-1.7c1.4-1.1,4.9-1.5,7.6-2.6c0.9-0.4,4.5-2.2,6.3-3.1c0,0,1.8-3.1,2.7-3.6
		s-1.8-1.4-2.2-2.3c0.9-0.4,3.6-1.8,3.2-2.7c0.5-1.5-3.1-1.8-3.6-2.7c0,0-0.9-1.8-2.7-0.9c-0.9,0.4-7.2,3.5-7.2,3.5
		c0.2-0.6-1.6-1.9-1.3-2.7c0.5-1.3,0-2.2,0-2.2s-1.3-0.5-1.8,0.9c-0.7,2.1-4.1,5.3-4.5,6.7c-0.3,0.9,0.9,4,0.9,4L44,59.5"/>
</g>
<g id="hair">
</g>
<g id="skin">
</g>
<g id="skin-shadow">
</g>
<g id="line">
	<path class="st1" d="M27.9,59.1l-1.7-0.8c0,0,0.1-3.6-0.3-4.6c-0.5-1.3-2.3-4.5-4.1-7.6c-0.7-1.2-2.7-1.3-2.7,0.9
		c0,0.9,0.8,3,0.4,3.9c0,0-5.2-2.3-8-4.2c-1.7-1.2-4.4,1-1.2,3.4c1.4,1,4.2,2.4,6,3.3"/>
	<path class="st1" d="M14.5,57.1c-3.8-1.8-6.9-3.9-8-5c-2.2-2-0.2-4.6,3.3-2.4"/>
	<path class="st1" d="M24.4,65.6C23.6,65,23,64.5,23,64.5c-0.9-0.4-3.3,0-9.4-3.5c-1.5-0.9-5.1-3.4-5.9-4c-2.8-2.2-0.6-3.9,1.6-2.8"
		/>
	<path class="st1" d="M44.8,59.1l1.7-0.8c0,0-0.1-3.6,0.3-4.6c0.5-1.3,2.3-4.5,4.1-7.6c0.7-1.2,2.7-1.3,2.7,0.9c0,0.9-0.8,3-0.4,3.9
		c0,0,5.2-2.3,8-4.2c1.7-1.2,4.4,1,1.2,3.4c-1.4,1-4.2,2.4-6,3.3"/>
	<path class="st1" d="M58.3,57.1c3.8-1.8,6.9-3.9,8-5c2.2-2,0.2-4.6-3.3-2.4"/>
	<path class="st1" d="M48.3,65.6c0.8-0.7,1.4-1.1,1.5-1.1c0.9-0.4,3.3,0,9.4-3.5c1.5-0.9,5.1-3.4,5.9-4c2.8-2.2,0.6-3.9-1.6-2.8"/>
</g>
</svg>
