<?xml version="1.0" encoding="utf-8"?>
<!-- Generator: Adobe Illustrator 24.0.1, SVG Export Plug-In . SVG Version: 6.00 Build 0)  -->
<svg version="1.1" id="emoji" xmlns="http://www.w3.org/2000/svg" xmlns:xlink="http://www.w3.org/1999/xlink" x="0px" y="0px"
	 viewBox="0 0 72 72" style="enable-background:new 0 0 72 72;" xml:space="preserve">
<style type="text/css">
	.st0{fill:#FFFFFF;}
	.st1{fill:none;stroke:#000000;stroke-width:2;stroke-linecap:round;stroke-linejoin:round;stroke-miterlimit:10;}
</style>
<g id="color">
	<polygon class="st0" points="11.8,40.7 11.9,29.9 15,24.7 17.2,20.4 22.8,16.8 27.5,14.5 32.8,12.9 35.8,12.7 42.4,13.7 49.1,17 
		50.1,19.6 43.1,22.8 35.4,26.6 28.2,30.8 22.2,35 15.5,41 13,43.5 	"/>
	<polygon class="st0" points="14.6,24.7 15.6,22.5 17.2,20.4 18.8,19.9 21.1,19.8 24.7,19.6 27.5,19.9 30.7,20 35.5,19.6 38.5,19.9 
		41.6,20.1 46,20.8 50.2,20.9 52.1,21.9 53.2,22.8 54.7,24.9 55.8,27.4 55.8,28.1 52.7,27.9 47.9,27.3 41.5,26.5 37.1,26.5 30,25.9 
		23.6,26.3 16.4,26.3 14.6,25.7 	"/>
</g>
<g id="line">
	<path class="st1" d="M12.9,43.8c0,0,3.8-3.8,10-8.5c1.2-0.9,2.5-1.9,3.9-2.9c2.9-2,6.1-4.1,9.6-6"/>
	<path class="st1" d="M56.1,28.5c-15.9-3.5-41.9-1.9-41.9-1.9"/>
	<path class="st1" d="M17.8,20c0,0,21.6-1.6,35,2"/>
	<path class="st1" d="M56.3,28.6c-3-9.2-11.7-15.9-21.9-15.9c-12.7,0-23,10.3-23,23c0,2.9,0.5,5.6,1.5,8.2"/>
</g>
</svg>
