<?xml version="1.0" encoding="utf-8"?>
<!-- Generator: Adobe Illustrator 24.0.1, SVG Export Plug-In . SVG Version: 6.00 Build 0)  -->
<svg version="1.1" id="emoji" xmlns="http://www.w3.org/2000/svg" xmlns:xlink="http://www.w3.org/1999/xlink" x="0px" y="0px"
	 viewBox="0 0 72 72" style="enable-background:new 0 0 72 72;" xml:space="preserve">
<style type="text/css">
	.st0{fill:#FFFFFF;}
	.st1{fill:#EA5A47;}
	.st2{fill:none;stroke:#000000;stroke-miterlimit:10;}
	.st3{fill:none;stroke:#000000;stroke-width:2;stroke-miterlimit:10;}
</style>
<g id="color">
	<path class="st0" d="M39.5,49l-0.7-0.8c-0.7-0.9-0.6-2.2,0.2-2.9l17-14.4c0.9-0.7,2.2-0.6,2.9,0.2l0.7,0.8c0.7,0.9,0.6,2.2-0.2,2.9
		l-17,14.4C41.6,50,40.3,49.9,39.5,49z"/>
	<path class="st1" d="M39.3,48.8l-0.2-0.3c-0.6-0.7-0.5-1.7,0.2-2.3l8.6-7.3c0.7-0.6,1.7-0.5,2.3,0.2l0.2,0.3
		c0.6,0.7,0.5,1.7-0.2,2.3L41.6,49C40.9,49.6,39.9,49.5,39.3,48.8z"/>
</g>
<g id="hair">
</g>
<g id="skin">
</g>
<g id="skin-shadow">
</g>
<g id="line">
	<path class="st2" d="M39.5,49l-0.7-0.8c-0.7-0.9-0.6-2.2,0.2-2.9l17-14.4c0.9-0.7,2.2-0.6,2.9,0.2l0.7,0.8c0.7,0.9,0.6,2.2-0.2,2.9
		l-17,14.4C41.6,50,40.3,49.9,39.5,49z"/>
	<path class="st3" d="M39.5,49l-0.7-0.8c-0.7-0.9-0.6-2.2,0.2-2.9l17-14.4c0.9-0.7,2.2-0.6,2.9,0.2l0.7,0.8c0.7,0.9,0.6,2.2-0.2,2.9
		l-17,14.4C41.6,50,40.3,49.9,39.5,49z"/>
</g>
</svg>
