<?xml version="1.0" encoding="utf-8"?>
<!-- Generator: Adobe Illustrator 23.1.1, SVG Export Plug-In . SVG Version: 6.00 Build 0)  -->
<svg version="1.1" id="emoji" xmlns="http://www.w3.org/2000/svg" xmlns:xlink="http://www.w3.org/1999/xlink" x="0px" y="0px"
	 viewBox="0 0 72 72" style="enable-background:new 0 0 72 72;" xml:space="preserve">
<style type="text/css">
	.st0{fill:#FCEA2B;}
	.st1{fill:none;stroke:#000000;stroke-width:2;stroke-linecap:round;stroke-linejoin:round;stroke-miterlimit:10;}
</style>
<g id="color">
	<path class="st0" d="M41,42.5c12.7-0.1,6.7-0.8,11.6-1.3c1.2-0.1,4.2-0.1,4.1,1c2.7,1.9,2.7,6.1-2.2,6.9c-8-1.5-20-2.1-20-2.1
		l0.4-5.3L41,42.5z"/>
</g>
<g id="hair">
</g>
<g id="skin">
</g>
<g id="skin-shadow">
</g>
<g id="line">
	<path class="st1" d="M58.4,45.7c-0.2,1.6-1.9,2.8-1.9,2.8c-2.4,1.4-9.1-0.8-9.1-0.8c-5-1.3-12.1-0.7-12.1-0.7 M58.4,45.6
		c0-1.8-1.5-3.2-1.5-3.2c-2.2-1.6-9.2,0-9.2,0c-5.4,0.7-12.1-0.5-12.1-0.5"/>
</g>
</svg>
