<?xml version="1.0" encoding="utf-8"?>
<!-- Generator: Adobe Illustrator 24.0.1, SVG Export Plug-In . SVG Version: 6.00 Build 0)  -->
<svg version="1.1" id="emoji" xmlns="http://www.w3.org/2000/svg" xmlns:xlink="http://www.w3.org/1999/xlink" x="0px" y="0px"
	 viewBox="0 0 72 72" style="enable-background:new 0 0 72 72;" xml:space="preserve">
<style type="text/css">
	.st0{fill:#92D3F5;}
</style>
<g id="color">
	<path class="st0" d="M54,30.8c0.9,1.7,2.9,4.9,5.6,6c1.7,0.7,3.8-0.2,4.5-1.9c0.7-1.8-0.1-3.8-1.9-4.5l0,0
		C59.5,29.2,55.8,30.2,54,30.8z"/>
	<path class="st0" d="M16.5,46.6c-1.7,0.7-5.1,2.5-6.5,5.1c-0.8,1.7-0.1,3.8,1.5,4.7c1.7,0.9,3.8,0.2,4.7-1.5l0,0
		C17.5,52.2,16.9,48.4,16.5,46.6z"/>
</g>
<g id="line">
	<path d="M63.1,38.7c-1.4,0.6-2.9,0.6-4.3,0c-4.5-1.9-7.1-7.9-7.2-8.2c-0.2-0.5,0-1.1,0.6-1.4c0.3-0.1,6.3-2.6,10.9-0.8l0,0
		c2.8,1.2,4.2,4.4,3.1,7.3C65.5,37.1,64.4,38.1,63.1,38.7z M54,30.8c0.9,1.7,2.9,4.9,5.6,6c1.7,0.7,3.8-0.2,4.5-1.9
		c0.7-1.8-0.1-3.8-1.9-4.5l0,0C59.5,29.2,55.8,30.2,54,30.8z"/>
	<path d="M7.8,55c-0.5-1.4-0.3-2.9,0.3-4.3c2.2-4.4,8.5-6.5,8.7-6.5c0.6-0.2,1.1,0.1,1.3,0.7c0.1,0.3,2.1,6.5-0.1,10.9l0,0
		c-1.4,2.7-4.8,3.8-7.5,2.5C9.2,57.6,8.2,56.4,7.8,55z M16.5,46.6c-1.7,0.7-5.1,2.5-6.5,5.1c-0.8,1.7-0.1,3.8,1.5,4.7
		c1.7,0.9,3.8,0.2,4.7-1.5l0,0C17.5,52.2,16.9,48.4,16.5,46.6z"/>
</g>
</svg>
