<?xml version="1.0" encoding="utf-8"?>
<!-- Generator: Adobe Illustrator 24.0.1, SVG Export Plug-In . SVG Version: 6.00 Build 0)  -->
<svg version="1.1" id="emoji" xmlns="http://www.w3.org/2000/svg" xmlns:xlink="http://www.w3.org/1999/xlink" x="0px" y="0px"
	 viewBox="0 0 72 72" style="enable-background:new 0 0 72 72;" xml:space="preserve">
<style type="text/css">
	.st0{fill:#6A462F;}
	.st1{fill:none;stroke:#000000;stroke-linecap:round;stroke-linejoin:round;stroke-miterlimit:10;}
	.st2{fill:none;stroke:#000000;stroke-width:2;stroke-linecap:round;stroke-linejoin:round;stroke-miterlimit:10;}
	.st3{fill:none;stroke:#000000;stroke-width:0.25;stroke-miterlimit:10;}
</style>
<g id="color">
	<path class="st0" d="M60.6,18.2l-2.8-2.1l-3.7-0.4l-3.7,2L48,19.8l-1.5-0.6l0.4-6.6L43.8,10l-3.5-1.4l-2.1-0.3l-2.5,0.5L35,8.4
		L34,8.1h-1.8l-2.6,1l-3,1.6L24.8,12l-0.5,1.3l0.5,2.2l0.4,2.4l-1.4,2.4l-3-2.5l-3.7-2l-3.7,0.4l-2.8,2.1l-1.9,3.5l0.3,3.6l2,4.1
		l2.7,2.7l1.9-3.4l1.7-3l2.8-2.2c2.4,0.8,8.4,2.5,16,2.5c4.6,0,9.8-1.1,15.3-2.5l2.5,2l1.7,3l1.9,3.4l2.7-2.7l2-4.1l0.3-3.6
		L60.6,18.2z"/>
</g>
<g id="line">
	<path class="st1" d="M59,17.2c0,0-4-3.9-10,1.6c0,0-3.8,3.7-13.5,3.7"/>
	<path class="st1" d="M12,17.2c0,0,4-3.9,10,1.6c0,0,3.8,3.7,13.5,3.7"/>
	<path class="st1" d="M49,18.8c0,0-3.8,3.7-13.5,3.7"/>
	<path class="st2" d="M14.1,31.8c1.2-3.1,3.2-5.8,5.6-8"/>
	<path class="st2" d="M57.6,31.7c-1.2-3-3-5.7-5.2-7.9"/>
	<polygon class="st3" points="24.7,19.9 25.2,17.9 24.8,15.6 24.3,13.3 24.8,12 26.6,10.7 29.6,9.1 32.2,8.1 34,8.1 35,8.4 
		35.7,8.8 38.2,8.3 40.3,8.6 43.8,10 46.8,12.6 46.4,19.2 46.8,20 46.1,20.6 40.1,22.3 31.7,22.3 27,21.3 	"/>
	<path class="st2" d="M23.8,19.9c0,0,1.7-0.4,1.4-2.6c-0.1-0.7-0.4-1.6-0.7-2.5c-0.6-1.7-0.2-3,4.1-5.1c0,0,2.1-1,2.8-1.3
		c1.1-0.3,3.3-0.6,4.5,0.8 M47.5,19.9c0,0-1.6-0.4-1.4-2.6c0.1-0.7,0.3-1.6,0.7-2.5c0.6-1.7,0.2-3-3.9-5.1c0,0-2-1-2.7-1.3
		c-1-0.3-3.1-0.6-4.3,0.8"/>
	<path class="st2" d="M13.9,32.3c0,0-10.2-8.4-1.9-15.1c0,0,4-3.9,10,1.6c0,0,3.8,3.7,13.5,3.7 M57.9,32.1c0,0,9.4-8.2,1.1-14.9
		c0,0-4-3.9-10,1.6c0,0-3.8,3.7-13.5,3.7"/>
	<path class="st2" d="M19.7,23.8c0,0,15.8,5.6,32.7,0"/>
</g>
</svg>
