<?xml version="1.0" encoding="utf-8"?>
<!-- Generator: Adobe Illustrator 24.0.1, SVG Export Plug-In . SVG Version: 6.00 Build 0)  -->
<svg version="1.1" id="emoji" xmlns="http://www.w3.org/2000/svg" xmlns:xlink="http://www.w3.org/1999/xlink" x="0px" y="0px"
	 viewBox="0 0 72 72" style="enable-background:new 0 0 72 72;" xml:space="preserve">
<style type="text/css">
	.st0{fill:#E27022;}
	.st1{fill:#E27022;stroke:#E27022;stroke-linecap:round;stroke-linejoin:round;stroke-miterlimit:10;}
	.st2{fill:#FCEA2B;stroke:#FCEA2B;stroke-linecap:round;stroke-linejoin:round;stroke-miterlimit:10;}
	.st3{fill:none;stroke:#000000;stroke-width:2;stroke-linecap:round;stroke-linejoin:round;stroke-miterlimit:10;}
</style>
<g id="line-supplement">
	<path d="M23.3,27c-0.2-0.1-0.4,0-0.5,0.1l-3.1,2.7c-0.1,0.1-0.2,0.3-0.2,0.5s0.2,0.3,0.3,0.4l3.8,1.2c0.1,0,0.1,0,0.2,0
		c0.1,0,0.2,0,0.3-0.1c0.1-0.1,0.2-0.3,0.2-0.5l-0.8-3.9C23.6,27.2,23.4,27.1,23.3,27z"/>
	<path d="M27.8,20.5l-3.9,0.7c-0.2,0-0.3,0.1-0.4,0.3s0,0.3,0.1,0.5l2.7,3.9c0.1,0.1,0.2,0.2,0.4,0.2c0,0,0.1,0,0.1,0
		c0.2,0,0.3-0.2,0.4-0.4l1.2-4.6c0-0.2,0-0.3-0.1-0.5C28.2,20.6,28,20.5,27.8,20.5z"/>
	<path d="M36.2,16.7c-0.1-0.1-0.3-0.2-0.5-0.2c-0.2,0.1-0.3,0.2-0.4,0.4l-0.6,3.6c0,0.1,0,0.3,0.1,0.4c0.1,0.1,0.2,0.2,0.4,0.2
		l3.7,0h0c0.2,0,0.4-0.1,0.5-0.3c0.1-0.2,0.1-0.4-0.1-0.5L36.2,16.7z"/>
	<path d="M49.6,23.1c0-0.2-0.1-0.3-0.3-0.4l-4.1-1.9c-0.2-0.1-0.4-0.1-0.5,0c-0.1,0.1-0.2,0.3-0.2,0.5l0.4,4.4
		c0,0.2,0.1,0.3,0.3,0.4c0.1,0,0.1,0,0.2,0c0.1,0,0.2,0,0.3-0.1l3.7-2.5C49.5,23.4,49.6,23.3,49.6,23.1z"/>
	<path d="M53.4,30l-2.7-2.9c-0.1-0.1-0.3-0.2-0.5-0.1s-0.3,0.2-0.4,0.3l-1.1,3.9c-0.1,0.2,0,0.4,0.1,0.5c0.1,0.1,0.2,0.2,0.4,0.2
		c0,0,0.1,0,0.1,0l3.8-1c0.2,0,0.3-0.2,0.4-0.3S53.6,30.1,53.4,30z"/>
	<path d="M38.6,28L31,29c-0.2,0-0.3,0.1-0.4,0.3c-0.1,0.2,0,0.4,0.1,0.5l4.7,6c0.1,0.1,0.2,0.2,0.4,0.2c0,0,0,0,0.1,0
		c0.2,0,0.3-0.1,0.4-0.3l3-7c0.1-0.2,0-0.4-0.1-0.5C39,28,38.8,27.9,38.6,28z"/>
</g>
<g id="color">
	<path class="st0" d="M17,27c-1.3-2.3-3.7-6.7-5-9c4.3,0.2,4-0.5,7.6,0c0.7-2,2.7-5,3.4-7c2.7,2,5.3,4,8,6c2-3.3,4-1.7,6-5
		c2.3,3.3,4.6,2.7,7,6c2-2,4,0,6-2c0.3,1.7,0.7,3.3,1,5c3.3-1.7,6.7-3.3,10-5c-1.7,3-4.3,8-6,11"/>
	<polygon class="st1" points="23.9,31.4 20,30.2 23.1,27.5 	"/>
	<polygon class="st2" points="26.7,25.6 24,21.7 27.9,21 	"/>
	<polygon class="st2" points="35.3,20.7 35.8,17.1 38.9,20.7 	"/>
	<polygon class="st2" points="45.4,25.6 45,21.2 49.1,23.1 	"/>
	<polygon class="st1" points="53.1,30.3 49.2,31.3 50.4,27.4 	"/>
	<polygon class="st1" points="35.7,35.4 31,29.4 38.7,28.5 	"/>
</g>
<g id="hair">
</g>
<g id="skin">
</g>
<g id="skin-shadow">
</g>
<g id="line">
	<path class="st3" d="M16,25c-1.3-2.3-4-7-4-7l7.6,0l2.8-7l7.8,5.6L37,12l7,6l6-2c0,0,0.7,3.3,1,5c3.3-1.7,6.7-3.3,10-5
		c-1.7,3-3.3,6-5,9"/>
</g>
</svg>
