<?xml version="1.0" encoding="utf-8"?>
<!-- Generator: Adobe Illustrator 24.0.1, SVG Export Plug-In . SVG Version: 6.00 Build 0)  -->
<svg version="1.1" id="emoji" xmlns="http://www.w3.org/2000/svg" xmlns:xlink="http://www.w3.org/1999/xlink" x="0px" y="0px"
	 viewBox="0 0 72 72" style="enable-background:new 0 0 72 72;" xml:space="preserve">
<style type="text/css">
	.st0{fill:#FCEA2B;}
	.st1{fill:none;stroke:#000000;stroke-width:2;stroke-linecap:round;stroke-linejoin:round;stroke-miterlimit:10;}
</style>
<g id="color">
	<polygon class="st0" points="37.9,56.7 39.4,53.1 41.3,47 43,39.7 41.3,38.2 41.6,36 40.7,34 38.4,35.4 37.2,36.2 35.5,35.1 
		33.8,36 30.9,39.7 29.7,43.9 29,45.8 26.8,44.1 26.8,42.8 25.3,41.6 24.6,43 24.6,46 25.6,52 27.2,55.2 27,59.2 35.8,59.5 	"/>
	<path class="st0" d="M26.6,54.6c0.7,1.4,1,1.7,1.1,1.8c-0.1,0.2-0.5,1.4-1.9,7.8l9.8,1.8c0-0.6-0.5-2,0.1-6.5
		c0.2-1.3,2.1-2.7,2.1-2.7S25,47.7,26.6,54.6z"/>
</g>
<g id="hair">
</g>
<g id="skin">
</g>
<g id="skin-shadow">
</g>
<g id="line">
	<path class="st1" d="M26.1,63.4c1-4.2,1.7-7,1.7-7s-0.3-0.1-1.7-2.9c-0.6-1.3-1.1-5.5-1.4-8.5c-0.3-2.8,0.1-3.6,1.1-3.6
		s1.2,0.8,1.7,2.2c0.5,1.5,1.3,2.8,1.3,2.8c1.5-4.4,3.6-8.2,5-10c2-2.5,4.6-0.4,3,2c-2,3-3,6-3,6"/>
	<path class="st1" d="M36.8,38.5l1-2c2.2-4.5,5-2,4,0c-1,2-3,6-4,9"/>
	<path class="st1" d="M35.5,65.2c0-2.1,0.1-4.2,0.3-5.7c0.3-1.7,2-2,3-4c3-6,1.8-8.3,4-14c1.1-2.9-1.6-3.7-3.1-0.6"/>
</g>
<path class="st0" d="M37.9,56.7"/>
</svg>
