<?xml version="1.0" encoding="utf-8"?>
<!-- Generator: Adobe Illustrator 24.0.1, SVG Export Plug-In . SVG Version: 6.00 Build 0)  -->
<svg version="1.1" id="emoji" xmlns="http://www.w3.org/2000/svg" xmlns:xlink="http://www.w3.org/1999/xlink" x="0px" y="0px"
	 viewBox="0 0 72 72" style="enable-background:new 0 0 72 72;" xml:space="preserve">
<style type="text/css">
	.st0{fill:#FFA7C0;}
	.st1{fill:#E67A94;}
	.st2{fill:none;stroke:#000000;stroke-width:2;stroke-linecap:round;stroke-linejoin:round;}
</style>
<g id="color">
	<g>
		<path class="st0" d="M11.3,34.7c-0.1,0.2-0.3,0.2-0.5,0.2c-0.1,0-0.1-0.1-0.2-0.2c-1-2-3.4-2.9-5.4-1.9c-2,1-2.9,3.4-1.9,5.4
			c0.1,0.2,0.2,0.4,0.4,0.6l7.2,9.3l7.2-9.2l0.2-0.3c1.2-1.9,0.6-4.4-1.4-5.6s-4.4-0.6-5.6,1.4C11.4,34.4,11.4,34.5,11.3,34.7z"/>
		<path class="st0" d="M48.3,7.7c-0.1,0.2-0.3,0.2-0.5,0.2c-0.1,0-0.1-0.1-0.2-0.2c-1-2-3.4-2.9-5.4-1.9s-2.9,3.4-1.9,5.4
			c0.1,0.2,0.2,0.4,0.4,0.6l7.2,9.3l7.2-9.2l0.2-0.3C56.6,9.6,56,7.1,54.1,6c-1.9-1.2-4.4-0.6-5.6,1.4C48.4,7.4,48.4,7.5,48.3,7.7z"
			/>
		<path class="st0" d="M56.3,52.7c-0.1,0.2-0.3,0.2-0.5,0.2c-0.1,0-0.1-0.1-0.2-0.2c-1-2-3.4-2.9-5.4-1.9c-2,1-2.9,3.4-1.9,5.4
			c0.1,0.2,0.2,0.4,0.4,0.6l7.2,9.3l7.2-9.2l0.2-0.3c1.2-1.9,0.6-4.4-1.4-5.6c-1.9-1.2-4.4-0.6-5.6,1.4
			C56.4,52.4,56.4,52.5,56.3,52.7z"/>
		<path class="st1" d="M15,32.4c2.2,0,4,1.8,4,4.1c0,0.7-0.2,1.5-0.6,2.1l-0.2,0.3L11,48.1l-0.6-0.7C18.3,36.6,15,32.4,15,32.4z"/>
		<path class="st1" d="M60,51.4c2.2,0,4,1.8,4,4.1c0,0.7-0.2,1.5-0.6,2.1l-0.2,0.3L56,67.1l-0.6-0.7C63.3,55.6,60,51.4,60,51.4z"/>
		<path class="st1" d="M52,5.4c2.2,0,4,1.8,4,4.1c0,0.7-0.2,1.5-0.6,2.1l-0.2,0.3L48,21.1l-0.6-0.7C55.3,9.6,52,5.4,52,5.4z"/>
	</g>
</g>
<g id="line">
	<g>
		<path class="st2" d="M52,50.4c-2.2,0-4,1.8-4,4.1c0,0.7,0.2,1.5,0.6,2.1l0.2,0.3l7.2,9.2l7.2-9.3c1.3-1.8,0.9-4.3-0.9-5.7
			c-1.8-1.3-4.3-0.9-5.7,0.9c-0.1,0.2-0.3,0.4-0.4,0.6c-0.1,0.2-0.3,0.2-0.5,0.2c-0.1,0-0.1-0.1-0.2-0.2C55,51.3,53.6,50.4,52,50.4z
			"/>
		<path class="st2" d="M7,32.4c-2.2,0-4,1.8-4,4.1c0,0.7,0.2,1.5,0.6,2.1l0.2,0.3l7.2,9.2l7.2-9.3c1.3-1.8,0.9-4.3-0.9-5.7
			S13,32.2,11.7,34c-0.1,0.2-0.3,0.4-0.4,0.6c-0.1,0.2-0.3,0.2-0.5,0.2c-0.1,0-0.1-0.1-0.2-0.2C10,33.3,8.6,32.4,7,32.4z"/>
		<path class="st2" d="M44,5.4c-2.2,0-4,1.8-4,4.1c0,0.7,0.2,1.5,0.6,2.1l0.2,0.3l7.2,9.2l7.2-9.3c1.3-1.8,0.9-4.3-0.9-5.7
			C52.6,4.8,50,5.2,48.7,7c-0.1,0.2-0.3,0.4-0.4,0.6c-0.1,0.2-0.3,0.2-0.5,0.2c-0.1,0-0.1-0.1-0.2-0.2C47,6.3,45.6,5.4,44,5.4z"/>
	</g>
</g>
</svg>
