<?xml version="1.0" encoding="utf-8"?>
<!-- Generator: Adobe Illustrator 24.0.1, SVG Export Plug-In . SVG Version: 6.00 Build 0)  -->
<svg version="1.1" id="emoji" xmlns="http://www.w3.org/2000/svg" xmlns:xlink="http://www.w3.org/1999/xlink" x="0px" y="0px"
	 viewBox="0 0 72 72" style="enable-background:new 0 0 72 72;" xml:space="preserve">
<style type="text/css">
	.st0{fill:#F4AA41;}
	.st1{fill:#E27022;}
	.st2{fill:#EA5A47;}
	.st3{fill:#D22F27;}
	.st4{fill:none;stroke:#000000;stroke-width:2;stroke-linecap:round;stroke-linejoin:round;}
	.st5{fill:#8967AA;}
</style>
<g id="color">
	<polygon class="st0" points="14.5,7.5 16.5,22.5 32.5,16.5 	"/>
	<polyline class="st1" points="26.4,13.5 32.5,16.5 19.3,21.4 	"/>
	<polygon class="st2" points="14.8,11.9 20.1,9.9 22.9,11.6 15,15 	"/>
	<polyline class="st3" points="24.9,13.4 26,13 30,14 23.5,16.8 	"/>
	<polyline class="st2" points="23.5,16.8 16,20 15.8,17 24.9,13.4 	"/>
</g>
<g id="line">
	<g>
		<g>
			<line class="st4" x1="16.8" y1="22" x2="14" y2="7"/>
			<line class="st4" x1="33" y1="16.3" x2="14" y2="7"/>
			<line class="st4" x1="16.8" y1="22" x2="33" y2="16.3"/>
		</g>
		<path class="st4" d="M61.4,12.6c-0.1,0.5-0.2,1-0.5,1.5c-1.3,2.5-4.3,3.6-6.9,2.4"/>
		<path class="st4" d="M65.9,44.4c-0.5-0.1-1-0.3-1.4-0.6c-2.4-1.5-3.2-4.6-1.8-7.1"/>
		<path class="st4" d="M61.4,64c-0.1-0.5-0.2-1-0.5-1.5c-1.3-2.5-4.3-3.6-6.9-2.4"/>
		<path class="st4" d="M24.2,56.9c-0.3-0.4-0.7-0.8-1.2-1c-2.4-1.5-5.6-0.8-7.1,1.5"/>
		<path d="M61.6,26.5c0.8,0,1.5-0.7,1.4-1.6c0-0.8-0.7-1.4-1.4-1.4c-0.8,0-1.5,0.7-1.4,1.6C60.2,25.8,60.9,26.5,61.6,26.5z"/>
		<path d="M61.6,51.5c0.8,0,1.5-0.7,1.4-1.6c0-0.8-0.7-1.4-1.4-1.4c-0.8,0-1.5,0.7-1.4,1.6C60.2,50.8,60.9,51.5,61.6,51.5z"/>
		<path d="M28.6,67.5c0.8,0,1.5-0.7,1.4-1.6c0-0.8-0.7-1.4-1.4-1.4c-0.8,0-1.5,0.7-1.4,1.6C27.2,66.8,27.9,67.5,28.6,67.5z"/>
		<path d="M19.6,49.5c0.8,0,1.5-0.7,1.4-1.6c0-0.8-0.7-1.4-1.4-1.4c-0.8,0-1.5,0.7-1.4,1.6C18.2,48.8,18.9,49.5,19.6,49.5z"/>
		<path d="M43.6,65.5c0.8,0,1.5-0.7,1.4-1.6c0-0.8-0.7-1.4-1.4-1.4c-0.8,0-1.5,0.7-1.4,1.6C42.2,64.8,42.9,65.5,43.6,65.5z"/>
	</g>
</g>
<g id="color-foreground">
	<path class="st5" d="M61.6,26.5c0.8,0,1.5-0.7,1.4-1.6c0-0.8-0.7-1.4-1.4-1.4c-0.8,0-1.5,0.7-1.4,1.6
		C60.2,25.8,60.9,26.5,61.6,26.5z"/>
	<path class="st5" d="M43.6,65.5c0.8,0,1.5-0.7,1.4-1.6c0-0.8-0.7-1.4-1.4-1.4c-0.8,0-1.5,0.7-1.4,1.6
		C42.2,64.8,42.9,65.5,43.6,65.5z"/>
	<path class="st0" d="M28.6,67.5c0.8,0,1.5-0.7,1.4-1.6c0-0.8-0.7-1.4-1.4-1.4c-0.8,0-1.5,0.7-1.4,1.6
		C27.2,66.8,27.9,67.5,28.6,67.5z"/>
	<path class="st3" d="M19.6,49.5c0.8,0,1.5-0.7,1.4-1.6c0-0.8-0.7-1.4-1.4-1.4c-0.8,0-1.5,0.7-1.4,1.6
		C18.2,48.8,18.9,49.5,19.6,49.5z"/>
	<path class="st3" d="M61.6,51.5c0.8,0,1.5-0.7,1.4-1.6c0-0.8-0.7-1.4-1.4-1.4c-0.8,0-1.5,0.7-1.4,1.6
		C60.2,50.8,60.9,51.5,61.6,51.5z"/>
</g>
</svg>
