<?xml version="1.0" encoding="utf-8"?>
<!-- Generator: Adobe Illustrator 24.0.1, SVG Export Plug-In . SVG Version: 6.00 Build 0)  -->
<svg version="1.1" id="emoji" xmlns="http://www.w3.org/2000/svg" xmlns:xlink="http://www.w3.org/1999/xlink" x="0px" y="0px"
	 viewBox="0 0 72 72" style="enable-background:new 0 0 72 72;" xml:space="preserve">
<style type="text/css">
	.st0{fill:#FCEA2B;}
	.st1{fill:none;stroke:#000000;stroke-width:2;stroke-linecap:round;stroke-linejoin:round;}
</style>
<g id="color">
</g>
<g id="skin">
	<path class="st0" d="M28.4,46c-1.7-1.2-1.4-2.7-2.9-3.5c-0.6,0-2.3-1.2-0.5,6.6s0.3,2,1.6,6.4c0.3,0.6,0.7,1.3,1.1,1.8
		c-0.1,0.2-0.5,1.4-1.9,7.8l9.8,1.8c-0.3-2.2-0.3-4.4,0.1-6.5c0.2-1.3,1.2-1.8,2.1-2.7c4.1-7,6-20.7,3.5-17.8
		c-1.9,2.1-0.1-1.3-0.1-1.6c1-6.6-3.5-0.8-3.8-1.4c-0.4-0.9-2,0.3-2.4-0.5C34.8,35.5,28.4,47.3,28.4,46z"/>
</g>
<g id="line">
	<g id="Yawning_Face">
		<path class="st1" d="M26.1,64.4c1-4.2,1.7-7,1.7-7s-0.3-0.1-1.7-2.9c-0.6-1.3-1.1-5.5-1.4-8.5c-0.3-2.8,0.1-3.6,1.1-3.6
			s1.2,0.8,1.7,2.2c0.4,1,0.8,1.9,1.3,2.8c1.1-3.6,2.8-6.9,5-10c2-2.5,4.6-0.4,3,2c-1.2,1.9-2.2,3.9-3,6"/>
		<path class="st1" d="M36.8,39.5l1-2c2.2-4.5,5-2,4,0c-1.5,2.9-2.8,5.9-4,9"/>
		<path class="st1" d="M35.5,66.2c0-1.9,0.1-3.8,0.3-5.7c0.3-1.7,2-2,3-4c3-6,1.8-8.3,4-14c1.1-2.9-1.6-3.7-3.1-0.6"/>
	</g>
</g>
</svg>
