<?xml version="1.0" encoding="utf-8"?>
<!-- Generator: Adobe Illustrator 24.0.1, SVG Export Plug-In . SVG Version: 6.00 Build 0)  -->
<svg version="1.1" id="emoji" xmlns="http://www.w3.org/2000/svg" xmlns:xlink="http://www.w3.org/1999/xlink" x="0px" y="0px"
	 viewBox="0 0 72 72" style="enable-background:new 0 0 72 72;" xml:space="preserve">
<style type="text/css">
	.st0{fill:#92D3F5;}
	.st1{fill:none;stroke:#000000;stroke-width:2;stroke-miterlimit:10;}
</style>
<g id="color">
	<path class="st0" d="M52.8,32.8c-1.1,1.1-3.1,3.5-3.3,5.9c-0.1,1.6,1.1,2.9,2.6,3.1c1.6,0.1,2.9-1.1,3.1-2.6l0,0
		C55.3,36.7,53.7,34.1,52.8,32.8z"/>
</g>
<g id="line">
	<g>
		<path class="st1" d="M50.4,40.6c-0.5-0.5-0.8-1.2-0.8-2c0-2.5,2.3-4.9,2.4-5c0.2-0.2,0.5-0.2,0.7,0c0,0,0,0,0,0
			c0.1,0.1,2.4,2.5,2.4,5l0,0c0,1.6-1.3,2.8-2.8,2.8C51.6,41.5,50.9,41.2,50.4,40.6z"/>
	</g>
</g>
</svg>
