<?xml version="1.0" encoding="utf-8"?>
<!-- Generator: Adobe Illustrator 24.0.1, SVG Export Plug-In . SVG Version: 6.00 Build 0)  -->
<svg version="1.1" id="emoji" xmlns="http://www.w3.org/2000/svg" xmlns:xlink="http://www.w3.org/1999/xlink" x="0px" y="0px"
	 viewBox="0 0 72 72" style="enable-background:new 0 0 72 72;" xml:space="preserve">
<g id="line">
	<path d="M31.7,33.8c-0.4,0-0.8-0.2-0.9-0.6c0,0-1.2-2.3-3.4-2.3S24,33.2,24,33.2c-0.3,0.5-0.8,0.6-1.3,0.4
		c-0.5-0.2-0.6-0.8-0.4-1.3c0.1-0.1,1.8-3.4,5.2-3.4s5.1,3.3,5.2,3.4c0.2,0.5,0,1-0.4,1.3C32.1,33.7,31.9,33.8,31.7,33.8z"/>
	<path d="M48.9,33.8c-0.4,0-0.8-0.2-0.9-0.6c0,0-1.2-2.3-3.4-2.3s-3.4,2.3-3.4,2.3c-0.2,0.5-0.8,0.7-1.3,0.4
		c-0.5-0.2-0.7-0.8-0.4-1.3l0,0c0.1-0.1,1.8-3.4,5.2-3.4c3.5,0,5.1,3.3,5.2,3.4c0.2,0.5,0,1-0.4,1.3C49.3,33.7,49.1,33.8,48.9,33.8z
		"/>
</g>
</svg>
