<?xml version="1.0" encoding="utf-8"?>
<!-- Generator: Adobe Illustrator 24.0.1, SVG Export Plug-In . SVG Version: 6.00 Build 0)  -->
<svg version="1.1" id="emoji" xmlns="http://www.w3.org/2000/svg" xmlns:xlink="http://www.w3.org/1999/xlink" x="0px" y="0px"
	 viewBox="0 0 72 72" style="enable-background:new 0 0 72 72;" xml:space="preserve">
<style type="text/css">
	.st0{fill:none;stroke:#000000;stroke-width:2;stroke-linecap:round;stroke-linejoin:round;stroke-miterlimit:10;}
</style>
<g id="hair">
</g>
<g id="skin">
</g>
<g id="skin-shadow">
</g>
<g id="line">
	<path d="M30.3,30.9c0,1.7-1.3,3-3,3c-1.7,0-3-1.3-3-3c0-1.7,1.3-3,3-3C29,27.9,30.3,29.3,30.3,30.9"/>
	<path d="M48.3,30.9c0,1.7-1.3,3-3,3s-3-1.3-3-3c0-1.7,1.3-3,3-3S48.3,29.3,48.3,30.9"/>
	<path class="st0" d="M39.9,24.8c0.5-0.2,2.6-1.3,5.1-0.6c2.1,0.6,3.3,2,3.7,2.5"/>
	<path class="st0" d="M22.3,26.7c0.3-0.4,1.8-2.2,4.4-2.7c2.1-0.4,3.8,0.4,4.4,0.7"/>
</g>
</svg>
