<?xml version="1.0" encoding="utf-8"?>
<!-- Generator: Adobe Illustrator 24.0.1, SVG Export Plug-In . SVG Version: 6.00 Build 0)  -->
<svg version="1.1" id="emoji" xmlns="http://www.w3.org/2000/svg" xmlns:xlink="http://www.w3.org/1999/xlink" x="0px" y="0px"
	 viewBox="0 0 72 72" style="enable-background:new 0 0 72 72;" xml:space="preserve">
<style type="text/css">
	.st0{fill:none;stroke:#000000;stroke-width:2;stroke-linecap:round;stroke-linejoin:round;stroke-miterlimit:10;}
</style>
<g id="hair">
</g>
<g id="skin">
</g>
<g id="skin-shadow">
</g>
<g id="line">
	<path d="M41,29.9c0.4,0,0.7,0.2,0.9,0.6c0,0,1.2,2.3,3.4,2.3c2.2,0,3.4-2.3,3.4-2.3c0.2-0.5,0.8-0.7,1.3-0.4
		c0.5,0.2,0.7,0.8,0.4,1.3c-0.1,0.1-1.8,3.4-5.2,3.4s-5.1-3.3-5.2-3.4c-0.2-0.5,0-1.1,0.4-1.3C40.7,29.9,40.9,29.9,41,29.9z"/>
	<path d="M23.8,29.9c0.4,0,0.7,0.2,0.9,0.6c0,0,1.2,2.3,3.4,2.3c2.2,0,3.4-2.3,3.4-2.3c0.2-0.5,0.8-0.7,1.3-0.4
		c0.5,0.2,0.7,0.8,0.4,1.3c-0.1,0.1-1.8,3.4-5.2,3.4s-5.1-3.3-5.2-3.4c-0.2-0.5,0-1.1,0.4-1.3C23.5,29.9,23.6,29.9,23.8,29.9z"/>
	<path class="st0" d="M22.3,27.7c0.8-1.6,2.3-2.9,4-3.5c1.6-0.8,3.5-1,5.3-0.5"/>
	<path class="st0" d="M52.3,27.7c-1.9-3.3-5.6-4.9-9.3-4"/>
</g>
</svg>
