<?xml version="1.0" encoding="utf-8"?>
<!-- Generator: Adobe Illustrator 24.0.1, SVG Export Plug-In . SVG Version: 6.00 Build 0)  -->
<svg version="1.1" id="emoji" xmlns="http://www.w3.org/2000/svg" xmlns:xlink="http://www.w3.org/1999/xlink" x="0px" y="0px"
	 viewBox="0 0 72 72" style="enable-background:new 0 0 72 72;" xml:space="preserve">
<style type="text/css">
	.st0{fill:#D22F27;}
	.st1{fill:none;stroke:#000000;stroke-width:2;stroke-linecap:round;stroke-linejoin:round;stroke-miterlimit:10;}
</style>
<g id="color">
	<path class="st0" d="M25.5,27.5c-1.3-3.4-6.4-3.6-6.1,1.3c0,0.6,0.3,1.3,0.6,1.8l5.3,6.4l0,0l5.2-6.3c0.6-0.7,0.9-1.6,0.9-2.5
		c-0.1-4.4-5.1-4-6.1-0.8"/>
	<path class="st0" d="M44.8,27.5c-1.3-3.4-6.4-3.6-6.1,1.3c0,0.6,0.3,1.3,0.6,1.8l5.3,6.4l0,0l5.2-6.3c0.6-0.7,0.9-1.6,0.9-2.5
		c-0.1-4.4-5-4-6.1-0.8"/>
</g>
<g id="hair">
</g>
<g id="skin">
</g>
<g id="skin-shadow">
</g>
<g id="line">
	<path class="st1" d="M25.5,27.5c-1.3-3.4-6.4-3.6-6.1,1.3c0,0.6,0.3,1.3,0.6,1.8l5.3,6.4l0,0l5.2-6.3c0.6-0.7,0.9-1.6,0.9-2.5
		c-0.1-4.4-5.1-4-6.1-0.8"/>
	<path class="st1" d="M44.8,27.5c-1.3-3.4-6.4-3.6-6.1,1.3c0,0.6,0.3,1.3,0.6,1.8l5.3,6.4l0,0l5.2-6.3c0.6-0.7,0.9-1.6,0.9-2.5
		c-0.1-4.4-5-4-6.1-0.8"/>
</g>
</svg>
