<?xml version="1.0" encoding="utf-8"?>
<!-- Generator: Adobe Illustrator 24.0.1, SVG Export Plug-In . SVG Version: 6.00 Build 0)  -->
<svg version="1.1" id="emoji" xmlns="http://www.w3.org/2000/svg" xmlns:xlink="http://www.w3.org/1999/xlink" x="0px" y="0px"
	 viewBox="0 0 72 72" style="enable-background:new 0 0 72 72;" xml:space="preserve">
<style type="text/css">
	.st0{clip-path:url(#SVGID_5_);}
	.st1{clip-path:url(#SVGID_6_);fill:#FCEA2B;}
	.st2{fill:#3F3F3F;}
	.st3{fill:#9B9B9A;stroke:#9B9B9A;stroke-width:2;stroke-miterlimit:10;}
	.st4{fill:none;stroke:#000000;stroke-width:2;stroke-linecap:round;stroke-linejoin:round;stroke-miterlimit:10;}
</style>
<g id="color">
	<g>
		<g>
			<defs>
				<polygon id="SVGID_1_" points="1,1 2,1 1,2 				"/>
			</defs>
			<clipPath id="SVGID_2_">
				<use xlink:href="#SVGID_1_"  style="overflow:visible;"/>
			</clipPath>
		</g>
		<g>
			<defs>
				<polygon id="SVGID_3_" points="1,1 2,1 1,2 				"/>
			</defs>
			<defs>
				<polygon id="SVGID_4_" points="-1,-1 -2,-1 -1,-2 				"/>
			</defs>
			<clipPath id="SVGID_5_">
				<use xlink:href="#SVGID_3_"  style="overflow:visible;"/>
			</clipPath>
			<clipPath id="SVGID_6_" class="st0">
				<use xlink:href="#SVGID_4_"  style="overflow:visible;"/>
			</clipPath>
			<rect x="8.6" y="8.1" class="st1" width="55.2" height="56"/>
		</g>
	</g>
	<path class="st2" d="M45.3,38.6c4,0,7.2-2.9,7.2-6.4c0-1.8,0.4-3.5-0.9-4.7s-4.3-1.7-6.3-1.7c-2.4,0-5.1,0.1-6.5,1.7
		c-0.9,1.1-0.7,3.3-0.7,4.7C38.2,35.7,41.4,38.6,45.3,38.6z"/>
	<path class="st2" d="M25.7,38.6c4,0,7.2-2.9,7.2-6.4c0-1.8,0.4-3.5-0.9-4.7s-4.3-1.7-6.3-1.7c-2.4,0-5.1,0.1-6.5,1.7
		c-0.9,1.1-0.7,3.3-0.7,4.7C18.6,35.7,21.8,38.6,25.7,38.6z"/>
	<path class="st3" d="M33.8,35.6"/>
</g>
<g id="hair">
</g>
<g id="skin">
</g>
<g id="skin-shadow">
</g>
<g id="line">
	<path class="st4" d="M18.9,30.5c0,0-1,8.6,6.9,7.9c2.6-0.2,7.8-0.7,7.9-8.3c0-0.7,0-1.6-0.8-2.6c-1.1-1.4-3.6-2-9.9-1.4
		C22.9,26,19.4,25.9,18.9,30.5z"/>
	<polyline class="st4" points="19,29.9 18.5,26.6 22.4,26 	"/>
	<path class="st4" d="M52.7,30.5c0,0,1,8.6-6.9,7.9c-2.6-0.2-7.8-0.7-7.9-8.3c0-0.7,0-1.6,0.8-2.6c1.1-1.4,3.6-2,9.9-1.4
		C48.8,26,52.2,25.9,52.7,30.5z"/>
	<path class="st4" d="M31.5,26.4c0,0,4.1,2.5,8.7,0"/>
	<path class="st4" d="M38,30"/>
	<path class="st4" d="M33.6,30"/>
	<path class="st4" d="M33.5,31.3c0,0,2.2-3.8,4.5,0"/>
	<polyline class="st4" points="52.7,29.9 53.1,26.6 49.3,26 	"/>
	<path class="st4" d="M34,30c0,0,1.8-3.8,3.7,0"/>
</g>
</svg>
