<?xml version="1.0" encoding="utf-8"?>
<!-- Generator: Adobe Illustrator 24.0.1, SVG Export Plug-In . SVG Version: 6.00 Build 0)  -->
<svg version="1.1" id="emoji" xmlns="http://www.w3.org/2000/svg" xmlns:xlink="http://www.w3.org/1999/xlink" x="0px" y="0px"
	 viewBox="0 0 72 72" style="enable-background:new 0 0 72 72;" xml:space="preserve">
<style type="text/css">
	.st0{fill:none;stroke:#000000;stroke-width:2;stroke-linecap:round;stroke-linejoin:round;stroke-miterlimit:10;}
	.st1{fill:none;stroke:#000000;stroke-width:2;stroke-miterlimit:10;}
</style>
<g id="hair">
</g>
<g id="skin">
</g>
<g id="skin-shadow">
</g>
<g id="line">
	<path d="M29.3,31.9c0,1.1-0.9,2-2,2s-2-0.9-2-2c0-1.1,0.9-2,2-2C28.4,29.9,29.3,30.8,29.3,31.9"/>
	<path d="M47.3,31.9c0,1.1-0.9,2-2,2s-2-0.9-2-2c0-1.1,0.9-2,2-2C46.4,29.9,47.3,30.8,47.3,31.9"/>
	<path class="st0" d="M22.9,22.3c0.5,0.2,2.6,1.2,5.2,0.3c2.1-0.7,3.2-2.1,3.5-2.6"/>
	<path class="st0" d="M48.6,22.3c-0.5,0.2-2.6,1.2-5.2,0.3c-2.1-0.7-3.2-2.1-3.5-2.6"/>
	<path class="st1" d="M31.8,31.5c0,2.5-2,4.5-4.5,4.5s-4.5-2-4.5-4.5c0-2.5,2-4.5,4.5-4.5S31.8,29,31.8,31.5"/>
	<path class="st1" d="M49.8,31.5c0,2.5-2,4.5-4.5,4.5c-2.5,0-4.5-2-4.5-4.5c0-2.5,2-4.5,4.5-4.5S49.8,29,49.8,31.5"/>
</g>
</svg>
