<?xml version="1.0" encoding="utf-8"?>
<!-- Generator: Adobe Illustrator 24.0.1, SVG Export Plug-In . SVG Version: 6.00 Build 0)  -->
<svg version="1.1" id="emoji" xmlns="http://www.w3.org/2000/svg" xmlns:xlink="http://www.w3.org/1999/xlink" x="0px" y="0px"
	 viewBox="0 0 72 72" style="enable-background:new 0 0 72 72;" xml:space="preserve">
<style type="text/css">
	.st0{fill:none;stroke:#000000;stroke-width:2;stroke-miterlimit:10;}
</style>
<g id="hair">
</g>
<g id="skin">
</g>
<g id="skin-shadow">
</g>
<g id="line">
	<path class="st0" d="M32.8,31.5c0,2.5-2,4.5-4.5,4.5s-4.5-2-4.5-4.5c0-2.5,2-4.5,4.5-4.5S32.8,29,32.8,31.5"/>
	<path d="M30.3,31.9c0,1.1-0.9,2-2,2s-2-0.9-2-2c0-1.1,0.9-2,2-2C29.4,29.9,30.3,30.8,30.3,31.9"/>
	<path class="st0" d="M50.8,31.5c0,2.5-2,4.5-4.5,4.5s-4.5-2-4.5-4.5c0-2.5,2-4.5,4.5-4.5S50.8,29,50.8,31.5"/>
	<path d="M48.3,31.9c0,1.1-0.9,2-2,2s-2-0.9-2-2c0-1.1,0.9-2,2-2C47.4,29.9,48.3,30.8,48.3,31.9"/>
	<path d="M23.9,31c0-2.5,2-4.5,4.5-4.5s4.5,2,4.5,4.5"/>
	<path d="M32.8,31"/>
	<path d="M41.9,31c0-2.5,2-4.5,4.5-4.5s4.5,2,4.5,4.5"/>
</g>
</svg>
