<?xml version="1.0" encoding="utf-8"?>
<!-- Generator: Adobe Illustrator 24.0.1, SVG Export Plug-In . SVG Version: 6.00 Build 0)  -->
<svg version="1.1" id="emoji" xmlns="http://www.w3.org/2000/svg" xmlns:xlink="http://www.w3.org/1999/xlink" x="0px" y="0px"
	 viewBox="0 0 72 72" style="enable-background:new 0 0 72 72;" xml:space="preserve">
<style type="text/css">
	.st0{fill:none;stroke:#000000;stroke-width:2;stroke-linecap:round;stroke-linejoin:round;stroke-miterlimit:10;}
</style>
<g id="hair">
</g>
<g id="skin">
</g>
<g id="skin-shadow">
</g>
<g id="line">
	<path d="M31.3,30.9c0,1.7-1.3,3-3,3c-1.7,0-3-1.3-3-3c0-1.7,1.3-3,3-3C30,27.9,31.3,29.3,31.3,30.9"/>
	<path d="M49.3,30.9c0,1.7-1.3,3-3,3s-3-1.3-3-3c0-1.7,1.3-3,3-3S49.3,29.3,49.3,30.9"/>
	<path class="st0" d="M24.9,24.3c0.5,0.2,2.6,1.2,5.2,0.3c2.1-0.7,3.2-2.1,3.5-2.6"/>
	<path class="st0" d="M50.6,24.3c-0.5,0.2-2.6,1.2-5.2,0.3c-2.1-0.7-3.2-2.1-3.5-2.6"/>
</g>
</svg>
