<?xml version="1.0" encoding="utf-8"?>
<!-- Generator: Adobe Illustrator 24.0.1, SVG Export Plug-In . SVG Version: 6.00 Build 0)  -->
<svg version="1.1" id="emoji" xmlns="http://www.w3.org/2000/svg" xmlns:xlink="http://www.w3.org/1999/xlink" x="0px" y="0px"
	 viewBox="0 0 72 72" style="enable-background:new 0 0 72 72;" xml:space="preserve">
<style type="text/css">
	.st0{fill:none;stroke:#000000;stroke-width:2;stroke-linecap:round;stroke-linejoin:round;stroke-miterlimit:10;}
</style>
<g id="hair">
</g>
<g id="skin">
</g>
<g id="skin-shadow">
</g>
<g id="line">
	<path class="st0" d="M20.3,27.1c0.7-1.4,1.9-2.5,3.4-3c1.4-0.7,3-0.8,4.5-0.4"/>
	<path class="st0" d="M50.9,27.1c-1.6-2.8-4.8-4.2-7.9-3.4"/>
	<path class="st0" d="M20.3,27.1c0.7-1.4,1.9-2.5,3.4-3c1.4-0.7,3-0.8,4.5-0.4"/>
	<path class="st0" d="M50.9,27.1c-1.6-2.8-4.8-4.2-7.9-3.4"/>
	<path class="st0" d="M29.2,31.4c-0.2-0.7-1-1.3-2-1.3l0,0c-1.1,0-2,0.7-2,1.6s0.9,1.6,2,1.6l0,0c1.1,0,2,0.7,2,1.6s-0.9,1.6-2,1.6
		l0,0c-1,0-1.8-0.5-2-1.3"/>
	<line class="st0" x1="27.3" y1="30.2" x2="27.3" y2="28.6"/>
	<line class="st0" x1="27.3" y1="38" x2="27.3" y2="36.5"/>
	<path class="st0" d="M46.3,31.4c-0.2-0.7-1-1.3-2-1.3l0,0c-1.1,0-2,0.7-2,1.6s0.9,1.6,2,1.6l0,0c1.1,0,2,0.7,2,1.6s-0.9,1.6-2,1.6
		l0,0c-1,0-1.8-0.5-2-1.3"/>
	<line class="st0" x1="44.3" y1="30.2" x2="44.3" y2="28.6"/>
	<line class="st0" x1="44.3" y1="38" x2="44.3" y2="36.5"/>
</g>
</svg>
