<?xml version="1.0" encoding="utf-8"?>
<!-- Generator: Adobe Illustrator 24.0.1, SVG Export Plug-In . SVG Version: 6.00 Build 0)  -->
<svg version="1.1" id="emoji" xmlns="http://www.w3.org/2000/svg" xmlns:xlink="http://www.w3.org/1999/xlink" x="0px" y="0px"
	 viewBox="0 0 72 72" style="enable-background:new 0 0 72 72;" xml:space="preserve">
<style type="text/css">
	.st0{fill:none;stroke:#000000;stroke-width:2;stroke-miterlimit:10;}
	.st1{fill:none;stroke:#000000;stroke-width:2;stroke-linecap:round;stroke-linejoin:round;stroke-miterlimit:10;}
</style>
<g id="hair">
</g>
<g id="skin">
</g>
<g id="skin-shadow">
</g>
<g id="line">
	<path class="st0" d="M31.8,31.5c0,2.5-2,4.5-4.5,4.5s-4.5-2-4.5-4.5s2-4.5,4.5-4.5S31.8,29,31.8,31.5"/>
	<path d="M28.3,32.5c0,1.1-0.9,2-2,2s-2-0.9-2-2s0.9-2,2-2S28.3,31.4,28.3,32.5"/>
	<path class="st0" d="M51,30.8c0,3.4-2.7,6.1-6.1,6.1s-6.1-2.7-6.1-6.1s2.7-6.1,6.1-6.1C48.3,24.7,51,27.5,51,30.8"/>
	<path d="M49,30.1c0,1.5-1.2,2.7-2.7,2.7s-2.7-1.2-2.7-2.7s1.2-2.7,2.7-2.7C47.8,27.4,49,28.6,49,30.1"/>
	<path class="st1" d="M39.1,21.9c0.4-0.3,2.2-1.8,4.9-1.6c2.2,0.1,3.6,1.2,4.1,1.6"/>
	<path class="st1" d="M22.8,23.7c0.4-0.3,2.2-1.8,4.9-1.6c2.2,0.1,3.6,1.2,4.1,1.6"/>
</g>
</svg>
