<?xml version="1.0" encoding="utf-8"?>
<!-- Generator: Adobe Illustrator 24.0.1, SVG Export Plug-In . SVG Version: 6.00 Build 0)  -->
<svg version="1.1" id="emoji" xmlns="http://www.w3.org/2000/svg" xmlns:xlink="http://www.w3.org/1999/xlink" x="0px" y="0px"
	 viewBox="0 0 72 72" style="enable-background:new 0 0 72 72;" xml:space="preserve">
<style type="text/css">
	.st0{fill:none;stroke:#000000;stroke-width:0.5;stroke-linecap:round;stroke-linejoin:round;stroke-miterlimit:10;}
</style>
<g id="hair">
</g>
<g id="skin">
</g>
<g id="skin-shadow">
</g>
<g id="line">
	<path class="st0" d="M28.9,61.5"/>
	<path d="M31.2,28c-0.2,0-0.5-0.1-0.7-0.3c0,0-1.2-1.1-3.5-1.1s-3.4,1.1-3.5,1.1c-0.4,0.4-1,0.4-1.4,0s-0.4-1,0-1.3
		c0.1-0.1,1.7-1.7,4.8-1.7s4.7,1.6,4.8,1.7c0.4,0.4,0.4,1,0,1.4C31.7,27.9,31.5,28,31.2,28z"/>
	<path d="M43.6,29.4c-3.1,0-4.7-1.6-4.8-1.7c-0.4-0.4-0.4-1,0-1.4s1-0.4,1.4,0c0,0,1.2,1.1,3.5,1.1s3.4-1.1,3.5-1.1
		c0.4-0.4,1-0.4,1.4,0s0.4,1,0,1.3C48.4,27.8,46.8,29.4,43.6,29.4z"/>
	<circle cx="26.9" cy="34.8" r="2.6"/>
	<circle cx="43.4" cy="34.8" r="2.6"/>
</g>
</svg>
