<?xml version="1.0" encoding="utf-8"?>
<!-- Generator: Adobe Illustrator 24.0.1, SVG Export Plug-In . SVG Version: 6.00 Build 0)  -->
<svg version="1.1" id="emoji" xmlns="http://www.w3.org/2000/svg" xmlns:xlink="http://www.w3.org/1999/xlink" x="0px" y="0px"
	 viewBox="0 0 72 72" style="enable-background:new 0 0 72 72;" xml:space="preserve">
<style type="text/css">
	.st0{fill:none;stroke:#000000;stroke-width:2;stroke-linecap:round;stroke-linejoin:round;}
	.st1{fill:#FFFFFF;}
</style>
<g id="line">
	<g>
		<path d="M31.2,31.4c0,1.9-1.5,3.5-3.5,3.5c-1.9,0-3.5-1.5-3.5-3.5s1.5-3.5,3.5-3.5C29.7,27.9,31.2,29.5,31.2,31.4"/>
		<path d="M48,31.4c0,1.9-1.5,3.5-3.5,3.5c-1.9,0-3.5-1.5-3.5-3.5c0-1.9,1.5-3.5,3.5-3.5l0,0C46.5,27.9,48,29.5,48,31.4"/>
		<path class="st0" d="M22,27c1.2-2.4,3-5,9-4"/>
		<path class="st0" d="M51,27c-1.2-2.4-3-5-9-4"/>
		<circle class="st1" cx="26" cy="30" r="1"/>
		<circle class="st1" cx="43" cy="30" r="1"/>
	</g>
</g>
</svg>
