<?xml version="1.0" encoding="utf-8"?>
<!-- Generator: Adobe Illustrator 24.0.1, SVG Export Plug-In . SVG Version: 6.00 Build 0)  -->
<svg version="1.1" id="emoji" xmlns="http://www.w3.org/2000/svg" xmlns:xlink="http://www.w3.org/1999/xlink" x="0px" y="0px"
	 viewBox="0 0 72 72" style="enable-background:new 0 0 72 72;" xml:space="preserve">
<style type="text/css">
	.st0{fill:none;stroke:#000000;stroke-width:2;stroke-linecap:round;stroke-linejoin:round;}
</style>
<g id="line">
	<g>
		<path d="M30.3,30.9c0,1.7-1.3,3-3,3c-1.7,0-3-1.3-3-3c0-1.7,1.3-3,3-3C29,27.9,30.3,29.3,30.3,30.9"/>
		<path d="M48.3,30.9c0,1.7-1.3,3-3,3c-1.7,0-3-1.3-3-3c0-1.7,1.3-3,3-3C47,27.9,48.3,29.3,48.3,30.9"/>
		<path class="st0" d="M20.9,25.9c1.7,0.5,3.6,0.3,5.2-0.4c1.3-0.7,2.4-1.8,3.1-3.1"/>
		<path class="st0" d="M51.1,25.9c-1.7,0.5-3.6,0.3-5.2-0.4c-1.3-0.7-2.4-1.8-3.1-3.1"/>
	</g>
</g>
</svg>
