<?xml version="1.0" encoding="utf-8"?>
<!-- Generator: Adobe Illustrator 24.0.1, SVG Export Plug-In . SVG Version: 6.00 Build 0)  -->
<svg version="1.1" id="emoji" xmlns="http://www.w3.org/2000/svg" xmlns:xlink="http://www.w3.org/1999/xlink" x="0px" y="0px"
	 viewBox="0 0 72 72" style="enable-background:new 0 0 72 72;" xml:space="preserve">
<style type="text/css">
	.st0{fill:none;stroke:#000000;stroke-width:2;stroke-linecap:round;stroke-linejoin:round;}
</style>
<g id="line">
	<g>
		<path d="M30.3,32.9c0,1.7-1.3,3-3,3s-3-1.3-3-3c0-1.7,1.3-3,3-3C29,29.9,30.3,31.3,30.3,32.9"/>
		<path d="M48.3,30.9c0,1.7-1.3,3-3,3s-3-1.3-3-3c0-1.7,1.3-3,3-3C47,27.9,48.3,29.3,48.3,30.9"/>
		<path class="st0" d="M21.3,27.6c1.1-1.4,2.7-2.3,4.5-2.6c1.5-0.2,3,0.1,4.3,0.8"/>
		<path class="st0" d="M41,27.1c1.4,1.1,3.1,1.7,4.9,1.6c1.5-0.1,2.9-0.7,4.1-1.6"/>
	</g>
</g>
</svg>
